<svg width="56" height="56" viewBox="0 0 56 56" fill="none" xmlns="http://www.w3.org/2000/svg">
<path fill-rule="evenodd" clip-rule="evenodd" d="M7.69531 25.3047C7.69531 35.0065 14.5002 43.1176 23.5968 45.1292L28 51L32.4031 45.1292C41.4998 43.1176 48.3047 35.0065 48.3047 25.3047C48.3047 14.0907 39.2139 5 28 5C16.7861 5 7.69531 14.0907 7.69531 25.3047ZM28 42.4759C37.396 42.4759 45.013 34.8589 45.013 25.4629C45.013 16.067 37.396 8.45 28 8.45C18.604 8.45 10.9871 16.067 10.9871 25.4629C10.9871 34.8589 18.604 42.4759 28 42.4759Z" fill="#F07C6D"/>
<g clip-path="url(#clip0)">
<path d="M41.3368 24.227L37.1538 20.0441V15.2121C37.1538 14.3384 36.4458 13.6303 35.5709 13.6303C34.6979 13.6303 33.9899 14.3384 33.9899 15.2121V16.8802L30.8754 13.7656C29.3356 12.2265 26.6583 12.2293 25.1219 13.7683L14.6631 24.227C14.0457 24.8456 14.0457 25.8466 14.6631 26.4643C15.2808 27.0828 16.2837 27.0828 16.9012 26.4643L27.359 16.0054C27.6997 15.6665 28.3002 15.6665 28.6391 16.0044L39.0987 26.4643C39.4089 26.7735 39.8132 26.9274 40.2175 26.9274C40.6226 26.9274 41.0276 26.7734 41.3368 26.4643C41.9544 25.8467 41.9544 24.8457 41.3368 24.227Z" fill="#47537F"/>
<path d="M28.5494 17.8579C28.2456 17.5542 27.7536 17.5542 27.4506 17.8579L18.251 27.0548C18.1057 27.2 18.0234 27.3982 18.0234 27.6051V34.313C18.0234 35.887 19.2997 37.1632 20.8737 37.1632H25.4284V30.1094H30.5706V37.1632H35.1255C36.6994 37.1632 37.9757 35.887 37.9757 34.313V27.6051C37.9757 27.3982 37.894 27.2 37.7481 27.0548L28.5494 17.8579Z" fill="#47537F"/>
</g>
<defs>
<clipPath id="clip0">
<rect width="27.6" height="27.6" fill="white" transform="translate(14.2 11.6629)"/>
</clipPath>
</defs>
</svg>
