<svg width="24" height="24" viewBox="0 0 24 24" fill="none" xmlns="http://www.w3.org/2000/svg">
<g clip-path="url(#clip0)">
<path d="M23.725 11.3363C23.7248 11.3361 23.7245 11.3357 23.7242 11.3354L18.8256 6.46045C18.4586 6.09525 17.865 6.09661 17.4997 6.46364C17.1345 6.83062 17.1359 7.4242 17.5028 7.78945L20.7918 11.0624H0.9375C0.419719 11.0624 0 11.4822 0 11.9999C0 12.5177 0.419719 12.9374 0.9375 12.9374H20.7917L17.5029 16.2104C17.1359 16.5757 17.1345 17.1693 17.4998 17.5362C17.865 17.9033 18.4587 17.9046 18.8256 17.5394L23.7242 12.6644C23.7245 12.6642 23.7248 12.6638 23.7251 12.6636C24.0923 12.2971 24.0911 11.7016 23.725 11.3363Z" fill="#7784C8"/>
</g>
<defs>
<clipPath id="clip0">
<rect width="24" height="24" fill="white"/>
</clipPath>
</defs>
</svg>
