<svg width="24" height="24" viewBox="0 0 24 24" fill="none" xmlns="http://www.w3.org/2000/svg">
<g clip-path="url(#clip0)">
<path d="M0.274969 12.6637C0.275249 12.6639 0.275484 12.6643 0.275812 12.6646L5.17444 17.5396C5.54142 17.9048 6.135 17.9034 6.5003 17.5364C6.86555 17.1694 6.86414 16.5758 6.49716 16.2106L3.20822 12.9376L23.0625 12.9376C23.5803 12.9376 24 12.5178 24 12.0001C24 11.4823 23.5803 11.0626 23.0625 11.0626L3.20826 11.0626L6.49711 7.78956C6.86409 7.42431 6.8655 6.83074 6.50025 6.46375C6.13495 6.09668 5.54133 6.09541 5.17439 6.46057L0.275764 11.3356C0.275484 11.3358 0.275249 11.3362 0.274921 11.3364C-0.0922514 11.7029 -0.0910783 12.2984 0.274969 12.6637Z" fill="#7784C8"/>
</g>
<defs>
<clipPath id="clip0">
<rect width="24" height="24" fill="white" transform="translate(24 24) rotate(180)"/>
</clipPath>
</defs>
</svg>
