<svg width="24" height="24" viewBox="0 0 24 24" fill="none" xmlns="http://www.w3.org/2000/svg">
<g clip-path="url(#clip0)">
<path d="M11.3364 0.274969C11.3361 0.27525 11.3357 0.275484 11.3355 0.275812L6.46047 5.17444C6.09526 5.54142 6.09662 6.135 6.46365 6.5003C6.83064 6.86555 7.42421 6.86414 7.78946 6.49716L11.0625 3.20822L11.0625 23.0625C11.0625 23.5803 11.4822 24 12 24C12.5177 24 12.9375 23.5803 12.9375 23.0625L12.9375 3.20827L16.2105 6.49711C16.5757 6.86409 17.1693 6.8655 17.5363 6.50025C17.9033 6.13495 17.9046 5.54133 17.5395 5.17439L12.6645 0.275765C12.6642 0.275484 12.6638 0.27525 12.6636 0.274921C12.2971 -0.0922508 11.7016 -0.0910777 11.3364 0.274969Z" fill="#7784C8"/>
</g>
<defs>
<clipPath id="clip0">
<rect width="24" height="24" fill="white" transform="translate(0 24) rotate(-90)"/>
</clipPath>
</defs>
</svg>
