<svg width="24" height="24" viewBox="0 0 24 24" fill="none" xmlns="http://www.w3.org/2000/svg">
<path fill-rule="evenodd" clip-rule="evenodd" d="M3.51473 19.0711C3.1242 19.4616 3.1242 20.0948 3.51473 20.4853C3.90525 20.8758 4.53842 20.8758 4.92894 20.4853L12 13.4142L19.0711 20.4853C19.4616 20.8758 20.0948 20.8758 20.4853 20.4853C20.8758 20.0948 20.8758 19.4616 20.4853 19.0711L13.4142 12L20.4853 4.92893C20.8758 4.53841 20.8758 3.90524 20.4853 3.51472C20.0948 3.12419 19.4616 3.12419 19.0711 3.51472L12 10.5858L4.92894 3.51472C4.53841 3.1242 3.90525 3.1242 3.51472 3.51472C3.1242 3.90524 3.1242 4.53841 3.51472 4.92893L10.5858 12L3.51473 19.0711Z" fill="#1E1E1E"/>
</svg>
