<svg width="35" height="35" viewBox="0 0 35 35" fill="none" xmlns="http://www.w3.org/2000/svg">
<path d="M17.7357 32.2498C21.9786 32.2498 25.4181 31.2963 25.4181 30.12C25.4181 28.9438 21.9786 27.9902 17.7357 27.9902C13.4928 27.9902 10.0532 28.9438 10.0532 30.12C10.0532 31.2963 13.4928 32.2498 17.7357 32.2498Z" fill="#DBCDE7"/>
<path fill-rule="evenodd" clip-rule="evenodd" d="M7.95679 11.9355C7.95679 6.5347 12.3347 2.15674 17.7356 2.15674C23.1364 2.15674 27.5143 6.5347 27.5143 11.9355C27.5143 13.7461 26.9952 15.5184 26.0188 17.0425L17.7356 29.9714L9.45311 17.0425C8.47597 15.5176 7.95679 13.7453 7.95679 11.9355Z" fill="#47537F"/>
<path d="M17.7364 16.0636C20.0168 16.0636 21.8654 14.215 21.8654 11.9346C21.8654 9.65427 20.0168 7.80566 17.7364 7.80566C15.456 7.80566 13.6074 9.65427 13.6074 11.9346C13.6074 14.215 15.456 16.0636 17.7364 16.0636Z" fill="#F0EBF4"/>
</svg>
