<svg width="24" height="16" viewBox="0 0 24 16" fill="none" xmlns="http://www.w3.org/2000/svg">
<path fill-rule="evenodd" clip-rule="evenodd" d="M5 0C4.44772 0 4 0.447715 4 1C4 1.55228 4.44772 2 5 2H19C19.5523 2 20 1.55228 20 1C20 0.447715 19.5523 0 19 0H5ZM0 8C0 7.44772 0.447715 7 1 7H23C23.5523 7 24 7.44772 24 8C24 8.55228 23.5523 9 23 9H1C0.447716 9 0 8.55228 0 8ZM4 15C4 14.4477 4.44772 14 5 14H19C19.5523 14 20 14.4477 20 15C20 15.5523 19.5523 16 19 16H5C4.44772 16 4 15.5523 4 15Z" fill="white"/>
</svg>
