<svg width="88" height="88" viewBox="0 0 88 88" fill="none" xmlns="http://www.w3.org/2000/svg">
<g filter="url(#filter0_d)">
<circle cx="44" cy="44" r="28" fill="white"/>
</g>
<path d="M25.25 52.75H30.875V62.125H25.25V52.75Z" fill="#C3DEE5"/>
<path d="M30.875 60.875H52.125L61.12 55.8156C61.7406 55.4662 62.125 54.8094 62.125 54.0969C62.125 53.0075 61.2425 52.125 60.1531 52.125H60.0581C59.7725 52.125 59.4906 52.1869 59.2319 52.3063L51.5 55.875H40.875H46.1875C46.7875 55.875 47.3375 55.6313 47.7313 55.2313L47.7375 55.225C48.1312 54.8312 48.375 54.2875 48.375 53.6875C48.375 52.5875 47.5562 51.675 46.5 51.525C46.4 51.5063 46.2937 51.5 46.1875 51.5H45.9937H39.5062H39H37.75L35.25 54H30.875V60.875Z" fill="#FFB494"/>
<path d="M62.75 35.25H57.125V25.875H62.75V35.25Z" fill="#C3DEE5"/>
<path d="M57.125 27.125H35.875L26.88 32.1844C26.2594 32.5338 25.875 33.1906 25.875 33.9031C25.875 34.9925 26.7575 35.875 27.8469 35.875H27.9419C28.2275 35.875 28.5094 35.8131 28.7681 35.6937L36.5 32.125H47.125H41.8125C41.2125 32.125 40.6625 32.3687 40.2688 32.7687L40.2625 32.775C39.8688 33.1687 39.625 33.7125 39.625 34.3125C39.625 35.4125 40.4438 36.325 41.5 36.475C41.6 36.4937 41.7063 36.5 41.8125 36.5H42.0063H48.4937H49H50.25L52.75 34H57.125V27.125Z" fill="#FFB494"/>
<path d="M45.875 56.5H41.5C41.155 56.5 40.875 56.22 40.875 55.875C40.875 55.53 41.155 55.25 41.5 55.25H45.875C46.22 55.25 46.5 55.53 46.5 55.875C46.5 56.22 46.22 56.5 45.875 56.5Z" fill="#FA9182"/>
<path d="M46.5 32.75H42.125C41.78 32.75 41.5 32.47 41.5 32.125C41.5 31.78 41.78 31.5 42.125 31.5H46.5C46.845 31.5 47.125 31.78 47.125 32.125C47.125 32.47 46.845 32.75 46.5 32.75Z" fill="#FA9182"/>
<path d="M44 48.375C46.4162 48.375 48.375 46.4162 48.375 44C48.375 41.5838 46.4162 39.625 44 39.625C41.5838 39.625 39.625 41.5838 39.625 44C39.625 46.4162 41.5838 48.375 44 48.375Z" fill="#F07C6D"/>
<path d="M44 46.5C45.3807 46.5 46.5 45.3807 46.5 44C46.5 42.6193 45.3807 41.5 44 41.5C42.6193 41.5 41.5 42.6193 41.5 44C41.5 45.3807 42.6193 46.5 44 46.5Z" fill="#FFB862"/>
<path d="M44 45.25C44.6904 45.25 45.25 44.6904 45.25 44C45.25 43.3096 44.6904 42.75 44 42.75C43.3096 42.75 42.75 43.3096 42.75 44C42.75 44.6904 43.3096 45.25 44 45.25Z" fill="#FFF8BA"/>
<path d="M40.0119 49.5994C39.6175 49.3181 39.2519 48.9938 38.9244 48.6356L39.8475 47.7919C40.1156 48.0856 40.415 48.3506 40.7381 48.5806L40.0119 49.5994ZM38.0619 47.4663C37.8163 47.0475 37.6156 46.6013 37.465 46.14L38.6525 45.7513C38.7763 46.1281 38.94 46.4925 39.14 46.8344L38.0619 47.4663ZM37.1625 44.7181C37.1381 44.4825 37.125 44.2425 37.125 44C37.125 43.7525 37.1381 43.5075 37.1638 43.2669L38.4069 43.3988C38.3856 43.5963 38.375 43.7969 38.375 44C38.375 44.1994 38.3856 44.3956 38.4056 44.5894L37.1625 44.7181ZM38.6569 42.2369L37.47 41.845C37.6219 41.3856 37.8231 40.94 38.0694 40.5213L39.1475 41.155C38.9456 41.4969 38.7806 41.8606 38.6569 42.2369ZM39.8537 40.1994L38.9337 39.3531C39.2625 38.9956 39.6287 38.6725 40.0231 38.3925L40.7469 39.4119C40.4238 39.6406 40.1238 39.9056 39.8537 40.1994Z" fill="#FFB862"/>
<path d="M47.9769 49.6075L47.2531 48.5881C47.5763 48.3588 47.8763 48.0938 48.1463 47.8006L49.0663 48.6469C48.7375 49.0044 48.3713 49.3275 47.9769 49.6075ZM49.9306 47.4788L48.8525 46.845C49.0538 46.5031 49.2188 46.1388 49.3425 45.7631L50.5294 46.155C50.3788 46.615 50.1769 47.06 49.9306 47.4788ZM50.8363 44.7331L49.5931 44.6013C49.6144 44.4038 49.625 44.2031 49.625 44C49.625 43.8006 49.6144 43.6044 49.5944 43.4106L50.8375 43.2819C50.8619 43.5175 50.875 43.7575 50.875 44C50.875 44.2475 50.8619 44.4925 50.8363 44.7331ZM49.3475 42.2481C49.2238 41.8713 49.06 41.5069 48.86 41.165L49.9388 40.5331C50.1844 40.9519 50.385 41.3981 50.5356 41.8594L49.3475 42.2481ZM48.1531 40.2075C47.885 39.9138 47.5856 39.6488 47.2625 39.4188L47.9881 38.4006C48.3825 38.6819 48.7481 39.0063 49.0756 39.3644L48.1531 40.2075Z" fill="#FFB862"/>
<path d="M52.005 48.8763L50.9388 48.2244C51.1588 47.8644 51.3519 47.4844 51.5131 47.0944L52.6681 47.5725C52.4819 48.0225 52.2587 48.4613 52.005 48.8763ZM53.1194 46.1794L51.9038 45.8888C52.0019 45.4788 52.0681 45.0581 52.1006 44.6375L53.3469 44.7338C53.3088 45.22 53.2325 45.7063 53.1194 46.1794ZM52.1006 43.3681C52.0681 42.9475 52.0025 42.5263 51.905 42.1163L53.1206 41.8263C53.2337 42.3 53.31 42.7863 53.3469 43.2719L52.1006 43.3681ZM51.515 40.9106C51.3544 40.5219 51.1612 40.1419 50.9412 39.7806L52.0081 39.1294C52.2625 39.5463 52.485 39.985 52.6706 40.4338L51.515 40.9106Z" fill="#FFB862"/>
<path d="M35.9919 48.8706C35.7375 48.4538 35.515 48.015 35.3294 47.5663L36.485 47.0894C36.6456 47.4781 36.8388 47.8581 37.0588 48.2194L35.9919 48.8706ZM34.8794 46.1738C34.7663 45.7 34.69 45.2138 34.6531 44.7281L35.8994 44.6325C35.9319 45.0531 35.9975 45.4744 36.095 45.8844L34.8794 46.1738ZM35.9 43.3625L34.6538 43.2663C34.6919 42.78 34.7681 42.2938 34.8813 41.8206L36.0969 42.1113C35.9988 42.5206 35.9325 42.9419 35.9 43.3625ZM36.4869 40.9056L35.3319 40.4275C35.5181 39.9775 35.7413 39.5388 35.995 39.1238L37.0613 39.7756C36.8413 40.1356 36.6481 40.5156 36.4869 40.9056Z" fill="#FFB862"/>
<path d="M55.875 27.125H57.125V34H55.875V27.125Z" fill="#FA9182"/>
<path d="M30.875 54H32.125V60.875H30.875V54Z" fill="#FA9182"/>
<defs>
<filter id="filter0_d" x="0" y="0" width="88" height="88" filterUnits="userSpaceOnUse" color-interpolation-filters="sRGB">
<feFlood flood-opacity="0" result="BackgroundImageFix"/>
<feColorMatrix in="SourceAlpha" type="matrix" values="0 0 0 0 0 0 0 0 0 0 0 0 0 0 0 0 0 0 127 0"/>
<feMorphology radius="8" operator="dilate" in="SourceAlpha" result="effect1_dropShadow"/>
<feOffset/>
<feGaussianBlur stdDeviation="4"/>
<feColorMatrix type="matrix" values="0 0 0 0 0 0 0 0 0 0 0 0 0 0 0 0 0 0 0.04 0"/>
<feBlend mode="normal" in2="BackgroundImageFix" result="effect1_dropShadow"/>
<feBlend mode="normal" in="SourceGraphic" in2="effect1_dropShadow" result="shape"/>
</filter>
</defs>
</svg>
