<svg width="56" height="56" viewBox="0 0 56 56" fill="none" xmlns="http://www.w3.org/2000/svg">
<path d="M46.75 16.7509H29.25C28.56 16.7509 28 17.3109 28 18.0009C28 18.6909 28.56 19.2509 29.25 19.2509H43.1075L35.4275 25.2234L29.92 21.7209L28.58 23.8309L34.83 27.8059C35.0325 27.9359 35.2675 28.0009 35.5 28.0009C35.77 28.0009 36.0425 27.9134 36.2675 27.7384L45.5 20.5559V36.7509H29.25C28.56 36.7509 28 37.3109 28 38.0009C28 38.6909 28.56 39.2509 29.25 39.2509H46.75C47.44 39.2509 48 38.6909 48 38.0009V18.0009C48 17.3109 47.44 16.7509 46.75 16.7509Z" fill="#47537F"/>
<path d="M30.0475 9.53836C29.7625 9.30086 29.38 9.19836 29.02 9.27336L9.02 13.0234C8.4275 13.1334 8 13.6484 8 14.2509V41.7509C8 42.3509 8.4275 42.8684 9.02 42.9784L29.02 46.7284C29.095 46.7434 29.1725 46.7509 29.25 46.7509C29.54 46.7509 29.8225 46.6509 30.0475 46.4634C30.335 46.2259 30.5 45.8709 30.5 45.5009V10.5009C30.5 10.1284 30.335 9.77586 30.0475 9.53836Z" fill="#7784C8"/>
<path d="M19.25 36.7509C15.805 36.7509 13 33.3859 13 29.2509C13 25.1159 15.805 21.7509 19.25 21.7509C22.695 21.7509 25.5 25.1159 25.5 29.2509C25.5 33.3859 22.695 36.7509 19.25 36.7509ZM19.25 24.2509C17.1825 24.2509 15.5 26.4934 15.5 29.2509C15.5 32.0084 17.1825 34.2509 19.25 34.2509C21.3175 34.2509 23 32.0084 23 29.2509C23 26.4934 21.3175 24.2509 19.25 24.2509Z" fill="#FAFAFA"/>
</svg>
