<svg width="56" height="56" viewBox="0 0 56 56" fill="none" xmlns="http://www.w3.org/2000/svg">
<path d="M37.231 8H18.769C17.7731 8 16.9655 8.80758 16.9655 9.80344V21.7931V27.3104V46.1966C16.9655 47.1924 17.7731 48 18.769 48H37.2317C38.2269 48 39.0345 47.1924 39.0345 46.1966V27.3103V21.793V9.80344C39.0345 8.80758 38.2269 8 37.231 8Z" fill="#727B85"/>
<path d="M39.0345 12.138H16.9655V41.1035H39.0345V12.138Z" fill="#1E1E1E"/>
<path d="M31.4483 10.7586H24.5517C24.171 10.7586 23.862 10.4496 23.862 10.0689C23.862 9.6882 24.171 9.37922 24.5517 9.37922H31.4483C31.829 9.37922 32.138 9.6882 32.138 10.0689C32.138 10.4496 31.829 10.7586 31.4483 10.7586Z" fill="#C4CED3"/>
<path d="M36.2759 10.7586H35.5862C35.2055 10.7586 34.8965 10.4496 34.8965 10.0689C34.8965 9.6882 35.2055 9.37922 35.5862 9.37922H36.2759C36.6566 9.37922 36.9655 9.6882 36.9655 10.0689C36.9655 10.4496 36.6566 10.7586 36.2759 10.7586Z" fill="#C4CED3"/>
<path d="M28.8559 45.931H27.1434C26.4737 45.931 25.931 45.3883 25.931 44.7179V44.3848C25.931 43.7151 26.4737 43.1724 27.1441 43.1724H28.8566C29.5262 43.1724 30.069 43.7151 30.069 44.3855V44.7186C30.069 45.3883 29.5262 45.931 28.8559 45.931Z" fill="#C4CED3"/>
</svg>
