<svg width="246" height="297" viewBox="0 0 246 297" fill="none" xmlns="http://www.w3.org/2000/svg">
<g clip-path="url(#clip0)">
<path d="M217.262 194.187C266.939 156.497 245.938 80.8968 208.248 31.2197C170.558 -18.4573 89.9259 10.8429 40.2489 48.5329C7.53439 73.3534 -22.1245 133.611 15.5654 183.288C53.2553 232.965 167.585 231.876 217.262 194.187Z" fill="#FFF7F4"/>
</g>
<path fill-rule="evenodd" clip-rule="evenodd" d="M115.2 111.018L115.861 86.4128C113.998 81.1668 112.926 76.4451 112.646 72.2476C112.797 71.1038 113.5 69.359 115.282 72.4174C117.065 75.4758 119.077 78.612 120.339 78.3236C121.602 78.0352 121.568 75.4545 123.458 75.3347C124.717 75.2548 124.255 79.359 122.069 87.6472L126.547 108.426L115.2 111.018Z" fill="#BA8B72"/>
<path fill-rule="evenodd" clip-rule="evenodd" d="M107.642 118.788C111.37 112.209 115.06 102.688 114.593 89.9558L124.812 91.0319C127.416 101.146 127.377 113.208 122.576 120.969C118.792 127.086 109.472 125.898 107.642 118.788Z" fill="#1F2B57"/>
<g filter="url(#filter0_d)">
<path d="M99.385 73.5845C98.3498 73.161 97.853 71.9759 98.2753 70.9377L102.011 61.752C102.434 60.7137 103.615 60.2154 104.65 60.6389L127.436 69.9619C128.471 70.3854 128.968 71.5705 128.546 72.6087L124.809 81.7944C124.387 82.8327 123.206 83.331 122.17 82.9075L99.385 73.5845Z" fill="#6E6E6E"/>
</g>
<path fill-rule="evenodd" clip-rule="evenodd" d="M98.8169 71.2284C98.5354 71.9206 98.8666 72.7106 99.5567 72.993L122.425 82.35C123.116 82.6323 123.903 82.3001 124.185 81.6079L127.954 72.341C128.235 71.6489 127.904 70.8588 127.214 70.5765L104.345 61.2195C103.655 60.9371 102.868 61.2693 102.586 61.9615L101.998 63.4062L102.207 63.4914C102.598 63.6514 102.786 64.0991 102.626 64.4913L100.624 69.4129C100.465 69.8051 100.018 69.9934 99.6273 69.8334L99.4189 69.7482L98.8169 71.2284Z" fill="#1E1E1E"/>
<path fill-rule="evenodd" clip-rule="evenodd" d="M106.675 78.6815C110.693 81.103 114.642 82.2729 116.495 81.7953C121.143 80.5977 121.57 63.6001 117.974 56.8991C114.378 50.1981 95.8919 47.2774 94.9601 60.5542C94.6367 65.1621 96.572 69.2744 99.4314 72.63L94.3043 96.5214H109.197L106.675 78.6815Z" fill="#BA8B72"/>
<path fill-rule="evenodd" clip-rule="evenodd" d="M88.4672 56.1344C87.9861 55.6579 87.7238 54.9776 87.4968 54.3317C87.2611 53.6607 87.032 52.9829 86.8755 52.2845C86.5628 50.8891 86.5598 49.2843 87.5555 48.2008C88.3541 47.3319 89.5523 46.9422 90.6581 46.8575C91.3948 46.801 92.1515 46.9041 92.8577 47.1362C93.5584 47.3665 94.1624 47.8254 94.8417 48.1103C94.8676 46.6065 95.1253 45.0331 95.8884 43.7491C96.6226 42.5137 97.7934 41.8204 99.1266 41.637C100.495 41.4488 101.846 41.7689 103.071 42.4313C103.378 42.5971 103.682 42.7709 103.973 42.9676C104.216 43.1323 104.469 43.3307 104.755 43.3976C105.074 43.4724 105.231 43.2885 105.438 43.0562C105.681 42.7838 105.955 42.5439 106.244 42.3313C107.523 41.3911 109.202 41.0045 110.684 41.5681C111.367 41.8277 112.031 42.2687 112.494 42.8763C112.907 43.4179 113.202 44.2771 113.772 44.6545C114.014 44.8147 114.185 44.6025 114.405 44.4456C114.736 44.2099 115.051 43.9498 115.386 43.7206C115.856 43.3984 116.366 43.1575 116.911 43.0314C117.709 42.8467 118.812 42.89 119.041 43.9353C119.126 44.3279 119.061 44.7478 119.033 45.1434C118.995 45.6866 118.955 46.2296 118.908 46.772C118.872 47.1838 118.827 47.5815 118.749 47.9859C118.708 48.2015 118.578 48.6034 118.67 48.8193C118.786 49.0891 119.319 48.9357 119.547 48.9451C119.997 48.9637 120.449 49.0426 120.865 49.2348C121.188 49.3838 121.527 49.603 121.663 49.9725C121.746 50.1995 121.724 50.4327 121.685 50.6662C121.637 50.9465 121.692 51.0951 121.727 51.3779C122.332 51.0804 124.426 50.4193 124.689 51.5022C124.777 51.8628 124.577 52.2702 124.425 52.5743C124.158 53.1077 123.807 53.5952 123.449 54.0601C122.701 55.03 121.809 55.8665 120.849 56.5819C121.974 57.0819 122.267 58.5567 121.293 59.4353C120.863 59.8232 120.285 59.9096 119.743 59.8848C119.544 59.8757 119.258 59.7994 119.102 59.834C119.018 59.8526 118.928 59.9238 118.811 59.9318C118.046 59.9842 117.182 59.7998 116.433 59.63C115.1 59.3273 113.837 58.6957 112.807 57.7338C112.542 57.4871 112.324 57.345 111.968 57.3487C111.656 57.3518 111.35 57.4373 111.038 57.4452C110.214 57.4663 109.47 57.0633 108.704 56.795C108.658 57.8291 108.363 58.9681 107.94 59.8984C107.595 60.657 106.874 60.7673 106.166 60.8338C103.902 61.0468 101.63 60.8091 99.3633 60.8123C101.558 61.3082 103.825 61.5126 106 62.0961C106.983 62.3598 106.233 63.0223 105.812 63.4815C105.12 64.2378 104.606 65.1747 104.249 66.1619C103.175 64.7629 101.278 63.8411 99.5966 64.2709C97.7391 64.7456 96.4312 67.2569 97.619 69.0623C98.3085 70.1103 99.5538 70.5149 100.59 70.9652C99.7816 71.8054 99.5861 73.0463 99.0996 74.0915C98.8596 74.607 98.5228 75.1898 97.9862 75.3695C97.7877 75.4359 97.5549 75.4416 97.3983 75.6034C97.2043 75.8038 97.1581 76.0277 96.9103 76.1999C95.9216 76.8871 94.3772 76.8341 93.5009 75.9373C92.7084 75.1263 92.9146 73.8429 93.5765 73.0206C92.5229 72.5815 90.6035 72.0169 91.0222 70.3759C88.7393 70.2243 83.1964 66.5227 86.2604 63.8178C84.5789 62.8677 83.034 60.5456 84.1141 58.4988C84.9459 56.9226 86.8802 56.218 88.4672 56.1344" fill="#353541"/>
<path fill-rule="evenodd" clip-rule="evenodd" d="M106.095 59.918C106.095 59.918 108.275 73.9293 111.944 73.9293C115.613 73.9293 118.726 71.6006 120.336 71.6006C121.509 71.6006 121.247 73.0688 120.47 74.1575C119.828 75.0556 116.702 75.9214 116.702 77.3138C116.702 78.7062 119.172 77.629 119.172 78.4548C119.172 79.8208 119.606 82.3892 117.234 82.3892C114.834 82.3892 107.953 81.5148 106.774 77.9537C105.595 74.3925 105.276 62.943 105.276 62.943L98.3379 60.5384L106.095 59.918Z" fill="#3D3D49"/>
<path fill-rule="evenodd" clip-rule="evenodd" d="M67.3867 174.071H115.326L121.608 251H50.2457L67.3867 174.071Z" fill="#C5CFD6"/>
<path fill-rule="evenodd" clip-rule="evenodd" d="M67.3867 174.071H82.1309L90.9556 251H50.2457L67.3867 174.071Z" fill="black" fill-opacity="0.1"/>
<path fill-rule="evenodd" clip-rule="evenodd" d="M141.666 189.312C136.279 200.734 127.861 228.462 127.861 228.462L135.008 231.727C135.008 231.727 153.141 202.58 164.222 182.655C163.706 187.14 163.18 192.19 162.693 197.499C161.538 210.074 162.692 237.244 163.313 245.092C163.704 250.025 170.407 248.991 171.033 245.079C171.139 244.417 171.571 242.091 172.216 238.62C175.376 221.601 183.648 177.06 183.662 166.154C183.668 161.765 175.093 157.823 169.981 160.891C166.471 157.146 159.826 154.987 156.009 161.174C153.582 165.107 147.816 176.273 141.666 189.312Z" fill="#BA8B72"/>
<path fill-rule="evenodd" clip-rule="evenodd" d="M128.372 218.197L152.9 160.104C158.777 150.654 175.252 162.027 173.248 167.508C168.698 179.952 145.561 220.237 144.205 223.944L128.372 218.197Z" fill="#5E6068"/>
<path fill-rule="evenodd" clip-rule="evenodd" d="M129.345 225.716C128.622 224.796 127.281 224.566 126.402 225.34C125.486 226.146 124.453 227.144 124.028 227.88C123.189 229.334 122.063 232.401 122.063 232.401C123.749 233.375 152.373 249.897 152.373 249.897C152.373 249.897 155.81 246.674 153.444 244.893C151.079 243.113 149.54 241.89 149.54 241.89L139.307 227.795C138.976 227.339 138.334 227.246 137.888 227.59L136.023 229.025C136.023 229.025 133.032 228.764 131.558 227.914C130.85 227.505 130.018 226.574 129.345 225.716Z" fill="#E4E4E4"/>
<path fill-rule="evenodd" clip-rule="evenodd" d="M164.224 241.57C163.138 241.135 161.862 241.606 161.487 242.715C161.097 243.871 160.702 245.252 160.702 246.102C160.702 247.781 161.261 251 161.261 251C163.209 251 196.261 251 196.261 251C196.261 251 197.625 246.491 194.686 246.131C191.747 245.772 189.803 245.482 189.803 245.482L173.891 238.39C173.377 238.161 172.775 238.402 172.56 238.923L171.663 241.098C171.663 241.098 168.942 242.367 167.241 242.367C166.423 242.367 165.236 241.976 164.224 241.57Z" fill="#E4E4E4"/>
<path fill-rule="evenodd" clip-rule="evenodd" d="M185.381 170.617C185.381 187.099 177.552 225.545 177.547 229.174L160.702 229.187C160.702 229.187 164.401 177.73 163.325 177.175C162.25 176.621 119.235 181.469 106.334 181.469C87.7314 181.469 80.0357 169.741 79.4113 148.014H116.263C123.766 148.817 162.904 156.709 177.44 159.422C183.662 160.584 185.381 166.077 185.381 170.617Z" fill="#72747C"/>
<path fill-rule="evenodd" clip-rule="evenodd" d="M155.738 119.315L165.199 114.118C165.199 114.118 167.19 106.543 169.96 106.496C171.378 105.836 168.908 112.217 171.597 111.664C174.285 111.111 180.848 106.231 181.978 107.222C183.651 108.687 182.16 113.188 180.402 115.427C177.118 119.611 174.398 121.042 167.676 122.916C162.404 124.385 156.277 128.807 156.277 128.807L155.738 119.315Z" fill="#BA8B72"/>
<path fill-rule="evenodd" clip-rule="evenodd" d="M91.1672 171.129C83.995 170.194 77.4047 169.335 73.4992 170.104C69.1173 155.877 72.7559 146.919 76.1149 138.649C78.1393 133.665 80.0622 128.931 80.0663 123.444C80.0782 107.466 92.9108 82.8726 94.7989 82.8726H95.3408H110.304H112.017C112.787 92.76 116.072 103.465 119.379 114.24C120.151 116.756 120.924 119.276 121.667 121.79C134.18 124.629 161.966 114.744 161.966 114.744C161.966 114.744 168.98 129.253 168.451 135.431C152.278 143.877 138.416 147.643 126.996 147.891C127.359 154.666 126.535 161.112 123.764 167.002C120.051 174.894 104.59 172.879 91.1672 171.129Z" fill="#37436F"/>
<defs>
<filter id="filter0_d" x="54.1248" y="48.488" width="98.5714" height="90.5704" filterUnits="userSpaceOnUse" color-interpolation-filters="sRGB">
<feFlood flood-opacity="0" result="BackgroundImageFix"/>
<feColorMatrix in="SourceAlpha" type="matrix" values="0 0 0 0 0 0 0 0 0 0 0 0 0 0 0 0 0 0 127 0"/>
<feOffset dx="-10" dy="22"/>
<feGaussianBlur stdDeviation="17"/>
<feColorMatrix type="matrix" values="0 0 0 0 0 0 0 0 0 0 0 0 0 0 0 0 0 0 0.1 0"/>
<feBlend mode="normal" in2="BackgroundImageFix" result="effect1_dropShadow"/>
<feBlend mode="normal" in="SourceGraphic" in2="effect1_dropShadow" result="shape"/>
</filter>
<clipPath id="clip0">
<rect width="246" height="228" fill="white"/>
</clipPath>
</defs>
</svg>
