<svg width="268" height="287" viewBox="0 0 268 287" fill="none" xmlns="http://www.w3.org/2000/svg">
<g clip-path="url(#clip0)">
<path d="M41.7385 33.8134C-7.93853 71.5034 13.0619 147.103 50.7518 196.78C88.4417 246.457 169.074 217.157 218.751 179.467C251.466 154.647 281.125 94.3886 243.435 44.7116C205.745 -4.96543 91.4155 -3.8765 41.7385 33.8134Z" fill="#ECF4F7"/>
</g>
<path fill-rule="evenodd" clip-rule="evenodd" d="M199.554 74.0444C196.735 75.7585 193.966 76.5867 192.665 76.2486C189.405 75.4008 189.106 63.3687 191.628 58.6253C194.151 53.8819 207.118 51.8144 207.772 61.2126C207.999 64.4744 206.641 67.3854 204.635 69.7607L208.232 86.6727H197.785L199.554 74.0444Z" fill="#BA8B72"/>
<path fill-rule="evenodd" clip-rule="evenodd" d="M212.327 58.0841C212.664 57.7467 212.848 57.2652 213.007 56.808C213.173 56.333 213.333 55.8532 213.443 55.3588C213.663 54.371 213.665 53.2351 212.966 52.4681C212.406 51.853 211.565 51.5771 210.79 51.5172C210.273 51.4772 209.742 51.5502 209.247 51.7145C208.755 51.8775 208.331 52.2024 207.855 52.404C207.837 51.3395 207.656 50.2257 207.121 49.3169C206.606 48.4423 205.784 47.9516 204.849 47.8218C203.889 47.6885 202.941 47.9152 202.082 48.384C201.867 48.5014 201.654 48.6244 201.45 48.7637C201.279 48.8803 201.101 49.0207 200.901 49.0681C200.677 49.121 200.567 48.9908 200.422 48.8264C200.251 48.6336 200.059 48.4638 199.856 48.3132C198.959 47.6477 197.781 47.374 196.742 47.773C196.263 47.9568 195.797 48.2689 195.472 48.699C195.182 49.0824 194.975 49.6907 194.576 49.9578C194.406 50.0712 194.286 49.9209 194.132 49.8099C193.899 49.6431 193.678 49.459 193.443 49.2967C193.113 49.0686 192.756 48.8981 192.374 48.8088C191.814 48.6781 191.04 48.7087 190.88 49.4486C190.82 49.7266 190.866 50.0238 190.885 50.3038C190.912 50.6883 190.94 51.0727 190.973 51.4567C190.998 51.7482 191.03 52.0297 191.084 52.316C191.113 52.4686 191.204 52.7531 191.139 52.9059C191.058 53.0969 190.684 52.9883 190.524 52.9949C190.209 53.0081 189.892 53.0639 189.6 53.2C189.374 53.3055 189.136 53.4606 189.04 53.7222C188.982 53.8829 188.997 54.048 189.025 54.2133C189.058 54.4117 189.02 54.5169 188.995 54.7171C188.571 54.5065 187.102 54.0385 186.917 54.805C186.856 55.0603 186.996 55.3487 187.103 55.564C187.29 55.9415 187.536 56.2866 187.788 56.6157C188.312 57.3023 188.938 57.8944 189.611 58.4009C188.822 58.7548 188.616 59.7987 189.299 60.4207C189.601 60.6953 190.007 60.7564 190.387 60.7388C190.527 60.7324 190.727 60.6784 190.837 60.7029C190.896 60.716 190.959 60.7665 191.041 60.7721C191.578 60.8092 192.184 60.6787 192.709 60.5585C193.644 60.3442 194.53 59.8972 195.253 59.2162C195.438 59.0416 195.592 58.941 195.841 58.9436C196.06 58.9458 196.275 59.0064 196.493 59.0119C197.072 59.0268 197.593 58.7416 198.13 58.5517C198.163 59.2837 198.37 60.0899 198.667 60.7485C198.909 61.2855 199.414 61.3635 199.911 61.4106C201.499 61.5614 203.093 61.3931 204.683 61.3954C203.144 61.7464 201.553 61.8911 200.027 62.3042C199.338 62.4909 199.864 62.9598 200.159 63.2849C200.645 63.8202 201.006 64.4834 201.256 65.1822C202.009 64.1919 203.34 63.5394 204.52 63.8436C205.822 64.1797 206.74 65.9573 205.907 67.2353C205.423 67.9772 204.55 68.2636 203.823 68.5823C204.39 69.1771 204.527 70.0555 204.868 70.7954C205.036 71.1603 205.273 71.5728 205.649 71.7C205.788 71.747 205.952 71.7511 206.062 71.8656C206.198 72.0074 206.23 72.1659 206.404 72.2878C207.097 72.7743 208.181 72.7368 208.796 72.102C209.351 71.5279 209.207 70.6193 208.743 70.0373C209.482 69.7265 210.828 69.3268 210.534 68.1652C212.136 68.0579 216.024 65.4376 213.875 63.5229C215.054 62.8503 216.138 61.2066 215.38 59.7577C214.797 58.642 213.44 58.1433 212.327 58.0841" fill="#353541"/>
<path fill-rule="evenodd" clip-rule="evenodd" d="M199.961 60.7622C199.961 60.7622 198.432 70.6804 195.858 70.6804C193.284 70.6804 191.101 69.032 189.971 69.032C189.148 69.032 189.332 70.0713 189.878 70.8419C190.328 71.4777 192.52 72.0905 192.52 73.0762C192.52 74.0619 190.788 73.2993 190.788 73.8839C190.788 74.8509 190.484 76.669 192.147 76.669C193.831 76.669 198.658 76.05 199.485 73.5292C200.312 71.0083 200.535 62.9035 200.535 62.9035L205.403 61.2014L199.961 60.7622Z" fill="#3D3D49"/>
<path fill-rule="evenodd" clip-rule="evenodd" d="M227.114 141.568H193.485L189.079 196.024H239.138L227.114 141.568Z" fill="#C5CFD6"/>
<path fill-rule="evenodd" clip-rule="evenodd" d="M227.114 141.568H216.771L210.581 196.024H239.138L227.114 141.568Z" fill="black" fill-opacity="0.1"/>
<path fill-rule="evenodd" clip-rule="evenodd" d="M175.008 152.356C178.787 160.442 184.692 180.07 184.692 180.07L179.679 182.381C179.679 182.381 166.959 161.748 159.186 147.644C159.548 150.819 159.917 154.394 160.258 158.152C161.068 167.054 160.259 186.286 159.823 191.842C159.549 195.333 154.847 194.602 154.408 191.833C154.333 191.364 154.03 189.717 153.578 187.26C151.361 175.213 145.559 143.684 145.549 135.963C145.544 132.857 151.56 130.066 155.146 132.238C157.608 129.587 162.27 128.059 164.947 132.439C166.65 135.223 170.695 143.127 175.008 152.356Z" fill="#BA8B72"/>
<path fill-rule="evenodd" clip-rule="evenodd" d="M184.334 172.803L167.128 131.681C163.006 124.992 151.449 133.042 152.854 136.922C156.046 145.731 172.276 174.248 173.227 176.872L184.334 172.803Z" fill="#5E6068"/>
<path fill-rule="evenodd" clip-rule="evenodd" d="M183.238 178.633C184.005 177.741 185.342 177.491 186.193 178.296C186.686 178.763 187.156 179.264 187.381 179.658C187.97 180.687 188.76 182.858 188.76 182.858C187.577 183.547 167.497 195.243 167.497 195.243C167.497 195.243 165.086 192.961 166.746 191.701C168.406 190.44 169.485 189.575 169.485 189.575L176.483 179.848C176.813 179.389 177.455 179.294 177.9 179.64L178.967 180.468C178.967 180.468 181.065 180.284 182.099 179.682C182.458 179.472 182.863 179.07 183.238 178.633Z" fill="#E4E4E4"/>
<path fill-rule="evenodd" clip-rule="evenodd" d="M158.564 189.583C159.675 189.196 160.964 189.654 161.301 190.781C161.497 191.434 161.655 192.102 161.655 192.557C161.655 193.745 161.262 196.024 161.262 196.024C159.897 196.024 136.711 196.024 136.711 196.024C136.711 196.024 135.754 192.832 137.816 192.577C139.877 192.323 141.241 192.118 141.241 192.118L152.118 187.226C152.634 186.994 153.239 187.236 153.453 187.76L153.966 189.014C153.966 189.014 155.875 189.913 157.068 189.913C157.48 189.913 158.026 189.77 158.564 189.583Z" fill="#E4E4E4"/>
<path fill-rule="evenodd" clip-rule="evenodd" d="M144.343 139.123C144.343 150.79 149.835 178.005 149.838 180.574L161.655 180.583C161.655 180.583 159.06 144.158 159.815 143.765C160.569 143.373 190.743 146.805 199.793 146.805C212.843 146.805 218.241 138.503 218.679 123.123H192.828C187.565 123.691 160.11 129.278 149.914 131.199C145.548 132.021 144.343 135.909 144.343 139.123Z" fill="#72747C"/>
<path fill-rule="evenodd" clip-rule="evenodd" d="M161.057 128.287L173.389 116.15L177.484 123.3L164.661 130.927C161.446 136.037 159.558 138.244 158.996 137.55C158.523 136.965 158.74 136.324 158.94 135.733C159.096 135.272 159.241 134.843 159.041 134.495C158.586 133.699 156.011 134.155 153.586 134.692C151.162 135.23 151.723 134.028 152.238 133.401C154.53 131.535 157.469 129.831 161.057 128.287ZM233.742 145.919C232.466 143.308 228.122 117.862 228.122 117.862L219.025 117.898C219.025 117.898 227.45 145.337 228.122 147.016C228.994 149.197 227.512 152.366 226.508 154.514C226.352 154.847 226.208 155.155 226.086 155.431C227.48 156.06 228.15 155.299 228.856 154.497C229.653 153.592 230.497 152.633 232.484 153.565C233.251 153.926 233.977 154.352 234.687 154.768C237.137 156.205 239.389 157.525 242.452 155.618C242.937 155.316 243.469 154.178 242.184 153.289C238.981 151.073 234.365 147.196 233.742 145.919Z" fill="#BA8B72"/>
<path fill-rule="evenodd" clip-rule="evenodd" d="M202.271 79.3528L198.507 78.7015C192.026 95.0339 180.712 109.874 164.563 123.222L176.766 138.178C192.912 119.173 202.865 99.5642 202.271 79.3528Z" fill="#1F2B57"/>
<path fill-rule="evenodd" clip-rule="evenodd" d="M218.679 127.076H185.161C185.161 127.076 196.809 98.5027 196.809 78.531L206.92 77.0112C214.866 89.9043 217.11 105.778 218.679 127.076Z" fill="#DDE3E9"/>
<path fill-rule="evenodd" clip-rule="evenodd" d="M233.915 141.568C230.249 99.8458 207.142 77.0112 207.142 77.0112L207.134 77.0184C207.133 77.016 207.131 77.0136 207.13 77.0112H206.47C205.285 77.0524 202.861 77.1595 202.861 77.1595L200.418 84.2033C200.031 97.0853 195.891 136.125 195.891 136.125H217.83C217.793 137.915 217.71 139.73 217.578 141.568H233.915Z" fill="#37436F"/>
<path fill-rule="evenodd" clip-rule="evenodd" d="M217.827 136.298C218.002 128.503 217.317 121.184 216.173 114.56C215.575 122.42 214.325 131.877 211.715 136.298H217.827Z" fill="black" fill-opacity="0.1"/>
<path fill-rule="evenodd" clip-rule="evenodd" d="M212.972 122.684L202.138 117.603V122.684H212.972Z" fill="white" fill-opacity="0.2"/>
<path fill-rule="evenodd" clip-rule="evenodd" d="M83.3284 73.6477C76.6977 73.6477 71.3225 79.0229 71.3225 85.6536V95.8581C71.3225 101.872 75.7449 106.854 81.5152 107.728C81.5178 107.777 81.5206 107.826 81.5234 107.876H96.9977C99.6292 105.3 96.6551 87.8271 94.8007 82.0363C94.5515 81.258 94.3097 80.6875 94.0721 80.2892C92.1022 76.3514 88.031 73.6477 83.3284 73.6477Z" fill="#DAD4A1"/>
<path fill-rule="evenodd" clip-rule="evenodd" d="M83.5608 99.4405C87.0161 101.527 90.4112 102.535 92.0049 102.124C96.0011 101.092 96.3686 86.444 93.2765 80.6694C90.1844 74.8948 74.2885 72.3779 73.4872 83.8192C73.2092 87.7901 74.8733 91.3339 77.3321 94.2256L72.9233 114.814H85.7296L83.5608 99.4405Z" fill="#E8B595"/>
<path fill-rule="evenodd" clip-rule="evenodd" d="M71.7927 83.8861C72.1646 83.5177 72.5243 83.1613 72.8812 82.8423L72.864 82.4267C72.864 82.4267 76.8833 74.1824 83.0624 74.1824C89.2359 74.1824 91.1883 77.058 92.8479 79.5024L92.8524 79.5089C91.9843 82.4933 89.3681 83.7008 86.4092 85.0663C85.1355 85.6541 83.7983 86.2713 82.5097 87.072C82.005 86.6612 81.3614 86.4149 80.6604 86.4149C79.0396 86.4149 77.7257 87.7314 77.7257 89.3554C77.7257 90.9794 79.0396 92.2959 80.6604 92.2959C80.7051 92.2959 80.7496 92.2949 80.7938 92.2929C81.3839 98.6432 81.1475 105.895 79.389 107.617H63.9147C63.4705 99.8837 65.4671 97.6777 67.5072 95.4236C69.4268 93.3026 71.3851 91.139 71.3851 84.2884C71.5228 84.1535 71.6586 84.0191 71.7927 83.8861L71.7927 83.8861Z" fill="#EEE8B5"/>
<path fill-rule="evenodd" clip-rule="evenodd" d="M44.6349 181.643C35.7983 181.643 28.6349 188.807 28.6349 197.643V231.937C28.6349 240.774 35.7984 247.937 44.6349 247.937H91.0735C99.91 247.937 107.073 240.774 107.073 231.937V197.643C107.073 188.807 99.91 181.643 91.0734 181.643H44.6349ZM47.5756 196.613C45.3664 196.613 43.5756 198.404 43.5756 200.613V228.968C43.5756 231.177 45.3664 232.968 47.5756 232.968H88.1328C90.3419 232.968 92.1328 231.177 92.1328 228.968V200.613C92.1328 198.404 90.3419 196.613 88.1328 196.613H47.5756Z" fill="#C5CFD6"/>
<path fill-rule="evenodd" clip-rule="evenodd" d="M128.889 248.453C126.214 232.046 124.82 220.223 124.709 212.984C124.517 200.589 124.74 189.786 125.125 185.833C126.043 176.406 139.269 179.38 139.795 184.327C140.59 191.816 139.211 213.139 135.658 248.298L128.889 248.453Z" fill="#E8B595"/>
<path fill-rule="evenodd" clip-rule="evenodd" d="M116.666 237.72L119.273 184.664C119.185 174.736 140.044 177.716 141.112 182.803C143.538 194.353 143.132 235.38 143.855 238.821L116.666 237.72Z" fill="#333F6B"/>
<path fill-rule="evenodd" clip-rule="evenodd" d="M86.2809 231.619C90.0948 226.045 103.967 207.292 111.523 199.532C113.694 197.303 115.813 195.163 117.817 193.168C123.773 187.24 135.634 197.204 129.688 202.603C114.883 216.049 93.2806 234.201 91.4757 235.819C88.9461 238.088 83.884 235.122 86.2809 231.619Z" fill="#E8B595"/>
<path fill-rule="evenodd" clip-rule="evenodd" d="M89.3714 230.13C88.6331 229.22 87.2927 228.984 86.4233 229.769C85.6983 230.423 84.9396 231.182 84.6088 231.756C83.8871 233.008 82.9191 235.652 82.9191 235.652C84.3691 236.491 108.983 250.729 108.983 250.729C108.983 250.729 111.938 247.951 109.904 246.417C107.869 244.882 106.546 243.829 106.546 243.829L97.8318 231.799C97.501 231.342 96.8589 231.249 96.4129 231.593L94.9233 232.743C94.9233 232.743 92.3511 232.518 91.0843 231.785C90.5406 231.47 89.9119 230.797 89.3714 230.13Z" fill="#3D2216"/>
<path fill-rule="evenodd" clip-rule="evenodd" d="M128.896 243.131C127.802 242.712 126.522 243.18 126.16 244.295C125.859 245.224 125.581 246.262 125.581 246.924C125.581 248.37 126.062 251.145 126.062 251.145C127.736 251.145 156.157 251.145 156.157 251.145C156.157 251.145 157.331 247.259 154.803 246.949C152.276 246.639 150.604 246.39 150.604 246.39L137.055 240.338C136.54 240.108 135.937 240.349 135.722 240.87L135.006 242.611C135.006 242.611 132.666 243.705 131.203 243.705C130.576 243.705 129.696 243.437 128.896 243.131Z" fill="#3D2216"/>
<path fill-rule="evenodd" clip-rule="evenodd" d="M111.802 194.608C111.802 194.608 87.3929 190.623 79.1028 189.159C63.3494 186.376 58.7556 177.882 61.4717 159.35L90.497 159.35C96.2586 161.017 138.645 179.97 138.645 179.97C143.729 182.499 142.782 189.955 141.853 192.412C141.796 192.562 116.141 236.556 116.141 236.556L92.3966 221.401L111.847 196.394C111.847 196.394 112.617 194.839 111.802 194.608Z" fill="#47537F"/>
<path fill-rule="evenodd" clip-rule="evenodd" d="M131.038 109.365L118.548 126.4L127.856 130.176L134.835 113.303C140.433 108.533 142.766 105.866 141.834 105.3C141.049 104.823 140.314 105.195 139.637 105.537C139.11 105.804 138.618 106.053 138.164 105.869C137.128 105.449 137.235 102.242 137.466 99.2039C137.696 96.1654 136.346 97.0498 135.68 97.7819C133.828 100.882 132.28 104.743 131.038 109.365ZM67.3057 145.775L56.1814 146.505C54.087 167.34 52.5942 178.851 51.7029 181.035C51.0492 182.638 45.7371 187.737 42.0103 190.698C40.5144 191.887 41.262 193.223 41.8813 193.548C45.7882 195.601 48.4281 193.808 51.3017 191.855C52.1337 191.289 52.9852 190.711 53.8927 190.208C56.2417 188.908 57.355 189.999 58.4072 191.031C59.3387 191.944 60.2223 192.81 61.8731 191.928C61.7002 191.603 61.4979 191.241 61.2795 190.851C59.868 188.329 57.7863 184.609 58.6668 181.888C59.1187 180.492 61.9984 168.454 67.3057 145.775Z" fill="#E8B595"/>
<path fill-rule="evenodd" clip-rule="evenodd" d="M68.8392 112.792L72.1634 109.495C85.9988 111.73 102.821 128.597 110.089 127.299C116.96 126.072 122.682 118.594 129.22 109.33L136.093 113.446C134.181 127.615 122.358 146.736 112.594 147.388C96.9822 148.43 77.8465 126.497 68.8392 112.792Z" fill="#AFCAD1"/>
<path fill-rule="evenodd" clip-rule="evenodd" d="M60.1169 164C60.1169 164 87.868 164 100.943 164C102.809 164 102.457 161.301 102.187 159.939C99.0751 144.221 86.9255 127.277 86.9255 104.902L75.1493 103.052C65.4089 118.748 62.0405 138.073 60.1169 164Z" fill="#7E8494"/>
<path fill-rule="evenodd" clip-rule="evenodd" d="M72.5804 106.642C73.2457 105.375 73.8955 104.176 74.5241 103.052H77.4019L77.4379 103.043L77.4425 103.052H79.0524C79.0524 103.052 94.9103 157.213 87.7959 175.227H61.4122C60.871 176.471 60.3203 177.674 59.7572 178.851L51.0566 179.443C47.6763 146.495 53.5168 127.914 72.5804 106.642Z" fill="#C3DEE5"/>
<defs>
<clipPath id="clip0">
<rect width="246" height="228" fill="white" transform="translate(259 228) rotate(-180)"/>
</clipPath>
</defs>
</svg>
