<svg width="246" height="243" viewBox="0 0 246 243" fill="none" xmlns="http://www.w3.org/2000/svg">
<g clip-path="url(#clip0)">
<path d="M30.2697 39.8304C-18.4274 76.7769 2.15876 150.885 39.1052 199.583C76.0517 248.28 155.094 219.557 203.791 182.611C235.86 158.28 264.934 99.2107 227.987 50.5136C191.041 1.81648 78.9668 2.88394 30.2697 39.8304Z" fill="#F1EBF5"/>
<path opacity="0.56" fill-rule="evenodd" clip-rule="evenodd" d="M204.02 66.7864C205.412 68.6215 206.679 70.4747 207.826 72.3416L210.382 70.7708C209.183 68.8192 207.861 66.8852 206.41 64.9731C204.961 63.063 203.368 61.2524 201.646 59.5397L199.531 61.6667C201.159 63.2861 202.659 64.9924 204.02 66.7864ZM211.964 80.2583C213.805 84.4895 215.1 88.7652 215.914 93.0397L218.861 92.4782C218.006 87.9894 216.646 83.5003 214.715 79.0613L211.964 80.2583ZM180.65 48.9007C184.955 50.9015 188.949 53.1957 192.556 55.7878L194.307 53.3516C190.53 50.6373 186.37 48.2508 181.914 46.1802L180.65 48.9007ZM216.938 101.91C217.13 106.423 216.833 110.903 216.123 115.297L219.085 115.775C219.825 111.195 220.136 106.511 219.935 101.782L216.938 101.91ZM158.74 41.7093C163.365 42.7137 167.839 43.9578 172.101 45.4461L173.09 42.6138C168.703 41.0819 164.111 39.8058 159.377 38.7776L158.74 41.7093ZM214.147 124.046C212.887 128.393 211.249 132.606 209.316 136.624L212.02 137.924C214.02 133.766 215.719 129.398 217.029 124.882L214.147 124.046ZM135.773 38.7149C140.449 38.9553 145.083 39.4032 149.62 40.0634L150.052 37.0947C145.419 36.4204 140.692 35.9638 135.927 35.7188L135.773 38.7149ZM112.576 39.1924C117.185 38.7688 121.839 38.5392 126.488 38.5086L126.469 35.5087C121.734 35.5398 116.995 35.7736 112.302 36.205L112.576 39.1924ZM204.997 144.521C202.578 148.449 199.897 152.108 197.055 155.426L199.334 157.378C202.277 153.941 205.05 150.155 207.552 146.094L204.997 144.521ZM89.7126 43.0117C94.1362 41.9133 98.7033 41.0101 103.358 40.3083L102.911 37.3418C98.1674 38.057 93.5082 38.9781 88.9896 40.1001L89.7126 43.0117ZM190.839 161.914C189.148 163.484 187.431 164.929 185.707 166.238C183.887 167.618 182.01 168.985 180.084 170.33L181.802 172.789C183.76 171.422 185.668 170.033 187.52 168.627C189.328 167.256 191.12 165.746 192.88 164.113L190.839 161.914ZM67.9002 50.6356C71.9368 48.7266 76.2589 47.0304 80.7976 45.556L79.8707 42.7028C75.2225 44.2128 70.7804 45.9549 66.6176 47.9236L67.9002 50.6356ZM172.337 175.456C168.445 177.894 164.405 180.225 160.263 182.406L161.66 185.06C165.87 182.844 169.975 180.475 173.93 177.998L172.337 175.456ZM54.122 58.8618C55.9 57.5128 57.7943 56.2247 59.7935 54.9994L58.2257 52.4416C56.1481 53.715 54.1713 55.0587 52.3087 56.4718C50.0149 58.2121 47.9133 60.0592 45.996 62.0031L48.1319 64.1098C49.9464 62.2701 51.9399 60.5173 54.122 58.8618ZM151.937 186.518C147.702 188.472 143.398 190.248 139.069 191.805L140.084 194.628C144.5 193.04 148.885 191.23 153.194 189.242L151.937 186.518ZM35.0543 86.8342C36.4882 81.7134 38.6119 76.8573 41.5088 72.3623L38.9871 70.7371C35.9168 75.5012 33.6746 80.6355 32.1654 86.0252L35.0543 86.8342ZM130.255 194.652C125.721 195.947 121.197 196.97 116.734 197.676L117.202 200.639C121.798 199.912 126.441 198.861 131.079 197.536L130.255 194.652ZM33.1608 113.312C32.6046 107.846 32.5586 102.475 33.0934 97.2873L30.1092 96.9797C29.5511 102.393 29.6018 107.971 30.1763 113.616L33.1608 113.312ZM107.582 198.668C102.869 198.932 98.2737 198.787 93.8572 198.177L93.4466 201.148C98.0775 201.788 102.868 201.937 107.75 201.663L107.582 198.668ZM39.2901 139.443C37.4457 134.293 35.9429 129.096 34.8422 123.925L31.908 124.549C33.039 129.863 34.5801 135.19 36.4657 140.455L39.2901 139.443ZM84.9597 196.222C80.605 194.875 76.4913 192.972 72.6861 190.444L71.0261 192.943C75.0862 195.64 79.4633 197.662 84.0734 199.088L84.9597 196.222ZM50.7279 163.853C48.0139 159.193 45.5267 154.37 43.3236 149.451L40.5857 150.677C42.8338 155.696 45.3699 160.614 48.1355 165.363L50.7279 163.853ZM65.6872 184.717C64.1168 183.152 62.6194 181.44 61.2028 179.573C59.5857 177.442 58.0094 175.246 56.4818 172.995L53.9994 174.679C55.5564 176.974 57.1635 179.213 58.8128 181.386C60.3112 183.361 61.8993 185.178 63.5696 186.842L65.6872 184.717Z" fill="#DBCDE7"/>
</g>
<path d="M112.649 243C112.649 243 112.649 240.242 113.041 239.323C113.433 238.404 114.874 234.671 114.874 234.671H120.504C120.504 234.671 121.547 238.078 121.618 239.193C121.689 240.308 121.618 243 121.618 243H112.649Z" fill="#3D2216"/>
<path d="M148.388 243C148.388 243 148.388 240.242 147.996 239.323C147.604 238.404 146.163 234.671 146.163 234.671H140.532C140.532 234.671 139.489 238.078 139.418 239.193C139.348 240.308 139.418 243 139.418 243H148.388Z" fill="#3D2216"/>
<path d="M125.837 88.1291C125.837 88.1291 125.639 94.2742 124.852 97.0263L118.638 101.367L142.036 104.875L136.455 97.1495C136.455 97.1495 134.77 88.9121 135.654 85.874C136.539 82.8359 125.837 88.1291 125.837 88.1291Z" fill="#D4A181"/>
<path d="M125.803 88.9788C125.803 88.9788 127.653 93.4388 131.138 93.3407C134.622 93.2426 135.417 89.2961 135.417 89.2961L125.803 88.9788Z" fill="#CA9777"/>
<path d="M123.722 85.3667C123.722 85.3667 122.596 79.7415 121.812 78.0377C121.028 76.3338 120.371 68.7312 129.077 68.3387C129.077 68.3387 132.414 68.7312 134.247 67.6162C134.247 67.6162 134.247 68.7312 133.79 69.1238C134.772 68.9508 135.782 69.0348 136.723 69.3677C137.663 69.7006 138.501 70.2711 139.156 71.0239C141.512 73.6465 137.586 82.8214 137.782 84.9846L123.722 85.3667Z" fill="#683E0B"/>
<path d="M137.913 77.5281V83.667C137.91 84.6744 137.697 85.67 137.287 86.5903V86.5903C136.6 88.1135 135.516 89.4234 134.149 90.3822C133.012 91.1819 131.792 91.635 130.75 91.6204C129.843 91.6037 128.664 91.1589 127.52 90.4009C125.981 89.3799 124.515 87.793 123.891 85.9263V85.8991L123.868 85.8198C123.683 85.2449 123.587 84.6448 123.584 84.0408V77.5281C123.584 76.006 124.644 74.7615 125.941 74.7615H135.575C136.852 74.7615 137.913 76.006 137.913 77.5281Z" fill="#D4A181"/>
<path d="M123.566 81.0027C123.566 81.0027 123.578 77.0939 126.671 76.4925C129.763 75.8912 136.68 78.3968 137.667 75.5466C138.653 72.6965 124.289 72.7445 123.566 74.5632C122.842 76.3819 123.566 81.0027 123.566 81.0027Z" fill="#683E0B"/>
<path d="M113.353 147.444C113.353 147.444 114.338 177.556 112.866 194.737C111.393 211.917 112.866 235.829 112.866 235.829C112.866 235.829 117.576 238.429 122.681 235.829C122.681 235.829 128.28 202.629 128.245 194.737C128.207 186.324 134.338 148.756 134.338 148.756L113.353 147.444Z" fill="#47537F"/>
<path d="M148.183 235.827C148.183 235.827 143.477 238.429 138.37 235.827C138.37 235.827 132.772 202.627 132.808 194.736C132.822 191.187 131.74 182.417 130.481 173.503C128.758 161.29 126.712 148.757 126.712 148.757L148.521 147.392C148.521 147.392 146.723 177.556 148.196 194.736C149.668 211.917 148.183 235.827 148.183 235.827Z" fill="#47537F"/>
<path d="M148.26 152.453C148.26 152.453 138.964 154.255 130.481 154.255C126.781 154.255 122.765 153.838 119.562 153.42C116.017 152.95 113.485 152.453 113.485 152.453C113.485 152.453 111.608 152.618 112.714 143.312C113.56 136.231 113.295 129.838 113.108 123.267C113.085 122.536 113.108 121.669 113.147 120.707C113.508 113.037 115.825 99.229 117.589 98.4878C117.589 98.4878 120.215 97.5106 124.852 97.0261C124.852 97.1159 127.545 101.056 130.739 101.499C132.725 100.714 134.284 100.037 136.455 97.1535C139.482 97.511 142.479 98.0895 145.422 98.8845C145.422 98.8845 145.756 100.346 147.016 125.726C147.512 135.778 150.938 152.487 148.26 152.453Z" fill="#C3DEE5"/>
<path d="M119.562 153.421C116.017 152.951 113.485 152.454 113.485 152.454C113.485 152.454 111.608 152.619 112.714 143.312C113.56 136.232 113.295 129.838 113.108 123.267C113.085 122.536 113.108 121.67 113.147 120.707C113.687 121.576 119.729 131.344 121.353 138.602C122.548 143.889 120.753 150.126 119.562 153.421Z" fill="#AFCAD1"/>
<path d="M132.808 194.737C132.822 191.187 131.74 182.417 130.481 173.503C131.786 168.17 134.968 163.038 134.968 163.038C138.993 174.345 132.808 194.737 132.808 194.737Z" fill="#333F6B"/>
<path d="M104.514 128.689C104.293 128.873 105.066 130.792 106.205 133.283C108.549 138.42 112.442 146.008 112.442 146.008C112.143 147.192 111.748 148.351 111.262 149.472C104.71 144.318 100.487 139.933 97.7906 136.572C94.0015 131.844 93.2236 129.132 93.2236 129.132C107.809 99.4043 118.073 98.3081 118.073 98.3081L116.861 117.955C116.861 117.955 105.189 128.125 104.514 128.689Z" fill="#C3DEE5"/>
<path d="M111.667 146.392C111.667 146.392 115.201 143.116 116.64 144.951C118.079 146.787 118.342 149.668 117.231 149.472C116.119 149.276 113.827 148.219 113.5 148.752C113.172 149.284 111.706 150.278 111.26 149.482C110.814 148.687 111.667 146.392 111.667 146.392Z" fill="#D4A181"/>
<path d="M112.442 146.018C112.143 147.203 111.748 148.361 111.262 149.482C104.71 144.329 100.487 139.944 97.7905 136.582C99.8238 136.432 102.795 135.703 106.205 133.293C108.549 138.43 112.442 146.018 112.442 146.018Z" fill="#D4A181"/>
<path d="M168.776 129.142C168.776 129.142 167.998 131.857 164.209 136.582C161.513 139.944 157.29 144.329 150.74 149.482C150.252 148.362 149.857 147.203 149.558 146.018C149.558 146.018 153.451 138.43 155.795 133.294C156.933 130.788 157.707 128.873 157.486 128.7C156.961 128.263 149.831 122.06 146.642 119.304L145.13 117.986L144.403 98.6318C144.403 98.6318 154.191 99.4149 168.776 129.142Z" fill="#C3DEE5"/>
<path d="M150.333 146.392C150.333 146.392 146.799 143.116 145.358 144.951C143.917 146.787 143.656 149.668 144.77 149.472C145.883 149.276 148.173 148.219 148.5 148.752C148.828 149.284 150.294 150.278 150.74 149.482C151.186 148.687 150.333 146.392 150.333 146.392Z" fill="#D4A181"/>
<path d="M149.555 146.018C149.856 147.203 150.251 148.361 150.738 149.482C157.288 144.329 161.513 139.944 164.209 136.582C162.176 136.432 159.204 135.703 155.795 133.293C153.451 138.43 149.555 146.018 149.555 146.018Z" fill="#D4A181"/>
<path d="M134.138 87.6721V90.3865C133.002 91.1863 131.782 91.6394 130.739 91.6247C129.832 91.608 128.654 91.1633 127.509 90.4053V87.6721C127.511 86.9445 127.801 86.2474 128.315 85.7329C128.828 85.2185 129.525 84.9285 130.251 84.9263H131.394C132.121 84.9279 132.818 85.2177 133.332 85.7322C133.846 86.2467 134.136 86.9442 134.138 87.6721V87.6721Z" fill="#683E0B"/>
<path d="M137.277 86.5862C135.982 89.5408 132.956 91.656 130.739 91.6163C128.608 91.5787 124.967 89.1753 123.881 85.9222V85.895L123.858 85.8157C123.858 85.8157 126.152 87.7722 127.659 86.8033H134.017C134.017 86.8033 135.673 87.7555 137.277 86.5862Z" fill="#683E0B"/>
<path d="M131.515 87.3417H130.143C129.83 87.3417 129.43 86.828 129.43 86.5065C129.636 86.3407 129.882 86.2319 130.143 86.1912H131.515C131.83 86.1912 132.289 86.4522 132.364 86.6401C132.349 86.6464 132.166 87.3417 131.515 87.3417Z" fill="#FFB27D"/>
<path d="M128.733 86.3834C128.733 86.3834 129.519 87.7239 130.894 87.678C132.268 87.6321 132.914 86.3834 132.914 86.3834C132.914 86.3834 130.595 85.9053 128.733 86.3834Z" fill="white"/>
<path d="M196.973 174.413L195.779 179.449L194.192 186.127H189.234L188.94 179.731L188.712 174.796L196.973 174.413Z" fill="#D4A181"/>
<path d="M193.152 62.8065C194.131 62.0736 203.143 58.9745 211.935 62.0225C220.727 65.0706 205.127 73.5614 205.127 73.5614L200.072 73.7798L193.152 62.8065Z" fill="#A5C0C7"/>
<path d="M187.274 193.465C187.274 193.465 187.274 191.033 187.621 190.225C187.967 189.416 189.234 186.127 189.234 186.127H194.192C194.192 186.127 195.114 189.128 195.171 190.11C195.228 191.092 195.171 193.465 195.171 193.465H187.274Z" fill="#3D2216"/>
<path d="M218.751 193.465C218.751 193.465 218.751 191.033 218.405 190.225C218.058 189.416 216.79 186.127 216.79 186.127H211.833C211.833 186.127 210.912 189.128 210.852 190.11C210.793 191.092 210.852 193.465 210.852 193.465H218.751Z" fill="#3D2216"/>
<path d="M198.89 57.0678C198.89 57.0678 198.715 62.4779 198.023 64.9013L192.549 76.7178L213.156 71.8181L208.242 65.0197C208.242 65.0197 206.758 57.764 207.537 55.0793C208.316 52.3947 198.89 57.0678 198.89 57.0678Z" fill="#D4A181"/>
<path d="M198.859 57.8069C198.859 57.8069 200.491 61.7348 203.559 61.647C206.628 61.5592 207.327 58.0845 207.327 58.0845L198.859 57.8069Z" fill="#CA9777"/>
<path d="M197.028 54.6343C197.028 54.6343 196.036 49.6794 195.344 48.1789C194.653 46.6783 194.076 39.982 201.742 39.6349C201.742 39.6349 204.683 39.982 206.297 39C206.297 39 206.297 39.982 205.89 40.3291C206.755 40.1767 207.644 40.2508 208.472 40.5441C209.301 40.8374 210.039 41.34 210.616 42.0031C212.691 44.3101 209.233 52.3926 209.407 54.2974L197.028 54.6343Z" fill="#683E0B"/>
<path d="M203.206 60.1382C200.984 60.0974 196.886 57.133 196.886 53.4603V47.7296C196.886 46.3883 197.82 45.292 198.961 45.292H207.445C208.587 45.292 209.521 46.3883 209.521 47.7296V53.1357C209.525 56.9901 205.757 60.1831 203.206 60.1382Z" fill="#D4A181"/>
<path d="M196.89 50.7899C196.89 50.7899 196.89 47.3458 199.624 46.817C202.358 46.2883 208.444 48.4952 209.309 45.9841C210.173 43.473 197.526 43.5179 196.89 45.1184C196.254 46.719 196.89 50.7899 196.89 50.7899Z" fill="#683E0B"/>
<path d="M206.381 110.46C207.745 106.21 207.716 128.063 202.24 152.643C201.404 156.396 199.532 165.442 198.189 174.196H186.974C186.819 167.126 186.063 157.251 185.586 149.865C184.091 126.693 187.896 109.305 187.896 109.305L206.381 110.46Z" fill="#47537F"/>
<path d="M220.786 149.865C220.662 156.949 219.224 166.361 219.094 173.259H207.71C206.946 168.251 205.731 163.094 204.856 158.936C204.244 155.981 203.788 153.529 203.794 151.994C203.806 148.985 201.906 140.308 200.772 132.657C200.773 132.646 200.773 132.636 200.772 132.626C200.729 132.332 200.686 132.038 200.646 131.748C199.129 120.993 199.663 110.465 199.663 110.465L218.872 109.264C218.872 109.264 221.114 130.97 220.786 149.865Z" fill="#47537F"/>
<path d="M186.375 118.217C186.375 118.217 190.695 123.459 202.436 122.708C214.176 121.957 219.779 119.905 219.779 119.905L186.375 118.217Z" fill="#333F6B"/>
<path d="M219.779 119.901C215.944 120.423 189.854 121.781 186.375 118.217C182.897 114.652 192.051 66.0404 192.051 66.0404C192.051 66.0404 193.089 65.7403 194.839 65.4116C195.732 65.2421 196.808 65.0686 198.026 64.9216C198.04 65.2993 198.342 71.03 203.094 73.3982C203.094 73.3982 208.803 71.1096 208.243 65.0135C208.243 64.942 208.228 64.8747 208.218 64.8093C208.979 64.891 209.751 64.9972 210.524 65.1299C212.126 65.4023 213.705 65.794 215.248 66.3017C215.248 66.3017 223.614 119.38 219.779 119.901Z" fill="#C3DEE5"/>
<path d="M186.603 94.8038C186.45 95.008 187.49 96.5024 188.958 98.4256C191.976 102.376 196.806 108.125 196.806 108.125C196.781 109.201 196.668 110.274 196.47 111.332C189.835 108.194 185.351 105.259 182.377 102.901C178.197 99.5852 177 97.4109 177 97.4109C183.702 69.0333 192.292 66.0669 192.292 66.0669L195.098 83.1731C195.098 83.1731 187.064 94.1873 186.603 94.8038Z" fill="#C3DEE5"/>
<path d="M210.524 65.1256L208.797 70.3908L206.493 73.7798L203.186 75.5682L200.073 73.7737L194.839 65.4033C195.732 65.2338 196.808 65.0603 198.025 64.9133C198.091 65.6632 198.312 66.3912 198.674 67.0508C200.562 70.7052 205.896 70.7256 207.763 67.0733C208.099 66.437 208.264 65.7244 208.243 65.0052C208.243 64.9337 208.228 64.8664 208.218 64.801C208.979 64.8868 209.751 64.9929 210.524 65.1256Z" fill="white"/>
<path d="M196.798 108.127V108.29C196.784 108.65 196.761 108.985 196.735 109.291C196.569 109.522 196.385 109.739 196.184 109.94C195.891 110.238 195.565 110.502 195.214 110.728C195.047 110.648 194.877 110.565 194.714 110.483C189.032 107.666 185.08 105.046 182.377 102.901C184.091 102.372 186.495 101.165 188.956 98.4236C191.966 102.376 196.798 108.127 196.798 108.127Z" fill="#D4A181"/>
<path d="M229.739 96.3658C229.739 96.3658 228.583 98.5646 224.466 101.96C221.538 104.373 217.11 107.394 210.538 110.659C210.316 109.605 210.18 108.535 210.131 107.46C210.131 107.46 214.849 101.619 217.791 97.6111C219.218 95.6594 220.238 94.1405 220.074 93.9363C219.701 93.4647 214.667 86.8358 212.42 83.8776L211.354 82.4709L214.196 65.6526C214.196 65.6526 222.489 68.1127 229.739 96.3658Z" fill="#C3DEE5"/>
<path d="M224.466 101.96C221.795 104.161 217.874 106.859 212.218 109.808L211.792 110.026C211.129 109.185 210.643 108.219 210.365 107.184C210.461 107.068 210.583 106.913 210.732 106.727C212.088 105.034 215.493 100.757 217.803 97.6091C220.313 100.302 222.741 101.464 224.466 101.96Z" fill="#D4A181"/>
<path d="M208.216 64.805C204.824 64.4623 201.404 64.5013 198.021 64.9214C198.021 64.9146 198.021 64.9077 198.021 64.901C198.021 64.901 207.457 59.0579 208.216 64.805Z" fill="#D4A181"/>
<path d="M198.755 81.3275H198.562L198.419 72.2222H198.908L198.755 81.3275Z" fill="#A5C0C7"/>
<path d="M198.543 81.091C198.366 81.3564 197.97 82.2383 198.233 82.3302C198.496 82.4221 198.959 82.4282 199.082 82.3057C199.204 82.1832 198.876 80.5887 198.543 81.091Z" fill="white"/>
<path d="M207.686 81.3275H207.492L207.35 72.2222H207.839L207.686 81.3275Z" fill="#A5C0C7"/>
<path d="M207.474 81.091C207.296 81.3564 206.901 82.2383 207.164 82.3302C207.427 82.4221 207.888 82.4282 208.012 82.3057C208.136 82.1832 207.808 80.5887 207.474 81.091Z" fill="white"/>
<path d="M200.072 73.78L192.053 66.0405C192.053 66.0405 190.247 64.7584 193.101 62.8393C195.956 60.9202 200.072 73.78 200.072 73.78Z" fill="#AFCAD1"/>
<path d="M206.491 73.78L214.51 66.0405C214.51 66.0405 216.317 64.7584 213.462 62.8393C210.608 60.9202 206.491 73.78 206.491 73.78Z" fill="#AFCAD1"/>
<path d="M216.557 111.449C214.995 111.581 213.692 111.189 212.683 110.289C212.516 110.14 212.36 109.979 212.216 109.807C211.423 108.878 210.979 107.713 210.728 106.727C210.555 106.063 210.448 105.384 210.41 104.699V104.473H197.456V104.714C197.507 106.108 197.283 107.304 196.786 108.29C196.543 108.776 196.225 109.221 195.844 109.607C195.503 109.948 195.119 110.242 194.702 110.483C193.57 111.104 192.304 111.436 191.013 111.449H190.775V116.928H216.806V111.436L216.557 111.449Z" fill="#AFCAD1"/>
<path d="M220.085 93.9425C220.085 93.9425 212.865 84.4554 218.58 81.6932C220.849 80.5968 224.044 93.6159 222.331 94.8408C220.619 96.0657 217.799 97.6173 217.799 97.6173L220.085 93.9425Z" fill="#AFCAD1"/>
<path d="M187.419 92.3806C187.419 92.3806 189.929 80.4702 187.727 81.6951C185.525 82.92 182.265 93.6178 183.975 94.8427C185.686 96.0676 188.506 97.609 188.506 97.609L187.419 92.3806Z" fill="#AFCAD1"/>
<path d="M194.039 176.73H188.234C187.721 176.787 186.915 176.034 186.915 174.956C186.915 174.956 186.915 172.371 186.734 171.912C185.986 169.899 187.099 169.791 188.173 169.791H198.776C199.852 169.791 198.203 173.12 198.203 174.198L198.584 175.611C198.576 176.687 195.114 176.73 194.039 176.73Z" fill="#333F6B"/>
<path d="M195.779 179.449L194.192 186.127H189.234L188.94 179.731C189.678 180 192.166 180.694 195.779 179.449Z" fill="white"/>
<path d="M209.06 174.413L210.255 179.449L211.843 186.127H216.8L217.095 179.731L217.324 174.796L209.06 174.413Z" fill="#D4A181"/>
<path d="M211.996 176.73H217.799C218.313 176.787 219.118 176.034 219.118 174.956C219.118 174.956 219.13 172.371 219.302 171.912C220.048 169.899 218.937 169.791 217.86 169.791H207.258C206.183 169.791 207.831 173.12 207.831 174.198L207.449 175.611C207.457 176.687 210.92 176.73 211.996 176.73Z" fill="#333F6B"/>
<path d="M210.255 179.449L211.843 186.127H216.8L217.096 179.731C216.355 180 213.87 180.694 210.255 179.449Z" fill="white"/>
<path d="M201.094 56.1411C201.349 56.456 201.671 56.7098 202.036 56.8836C202.402 57.0574 202.802 57.1469 203.206 57.1455C203.59 57.1405 203.968 57.0473 204.311 56.8732C204.653 56.6991 204.951 56.4486 205.182 56.1411C205.182 56.1411 202.915 55.7654 201.094 56.1411Z" fill="white"/>
<path d="M18.0728 74C18.0728 74 15.3461 71.6754 16.1474 68.0107C16.9487 64.346 23.8079 64.6693 33.9602 65.7126C44.1125 66.7559 70.0905 67.0762 79.3007 65.1483C88.5108 63.2205 91.7218 66.2739 92.6845 68.8424C93.6472 71.4109 91.4019 74 91.4019 74H18.0728Z" fill="#C3DEE5"/>
<path d="M32.8742 33.973C32.8742 33.973 33.2851 31.8923 32.6423 31.7307C31.9996 31.569 31.8792 33.0561 31.8792 33.0561C31.8792 33.0561 29.7954 30.0585 28.4306 31.7189C27.0658 33.3793 31.0956 35.6245 31.0956 35.6245L32.8742 33.973Z" fill="#CA9777"/>
<path d="M53.5162 41.2555C49.9619 41.2056 43.4197 37.3116 43.4197 32.4919V24.9715C43.4197 20.1783 48.5267 16.7898 53.9389 16.7898C61.8841 16.7898 63.6245 23.2111 63.6245 24.9715V32.0658C63.6128 37.1235 57.5901 41.3143 53.5162 41.2555Z" fill="#CA9777"/>
<path d="M54.9223 39.3069H52.0547C46.9389 39.3069 42.7917 43.4594 42.7917 48.5818V56.4344C42.7917 61.5568 46.9389 65.7093 52.0547 65.7093H54.9223C60.0381 65.7093 64.1852 61.5568 64.1852 56.4344V48.5818C64.1852 43.4594 60.0381 39.3069 54.9223 39.3069Z" fill="#CA9777"/>
<path d="M48.964 39.8449C48.964 39.8449 46.7304 40.8176 44.9166 40.1652C42.3044 39.2248 39.3106 38.9456 38.7119 38.4196C37.6964 37.5379 32.8741 33.9731 32.8741 33.9731L31.0955 35.6248C31.0955 35.6248 34.2682 43.1246 36.0469 44.2678C37.8255 45.411 41.4004 49.9133 46.2021 49.8516C48.694 49.831 48.964 39.8449 48.964 39.8449Z" fill="#CA9777"/>
<path d="M49.8503 34.8783C49.8503 34.8783 51.2415 36.859 53.2198 36.8061C55.198 36.7532 56.5364 34.8783 56.5364 34.8783C56.5364 34.8783 53.7011 32.8417 49.8503 34.8783Z" fill="white"/>
<path d="M50.6546 17.9948C50.6546 17.9948 49.3691 20.484 50.6546 22.0916C51.9402 23.6991 55.3859 22.7352 55.3859 22.7352C55.3859 22.7352 54.024 22.1709 54.024 21.6096C54.024 21.6096 56.1079 22.6529 57.232 21.5302C58.3562 20.4076 57.6195 16.9515 56.5364 16.3079C55.4534 15.6642 51.2152 15.9405 50.6546 17.9948Z" fill="#683E0B"/>
<path d="M58.1567 39.8449C58.1567 39.8449 60.3903 40.8176 62.2012 40.1652C64.8163 39.2248 67.8071 38.9456 68.4088 38.4196C69.4243 37.5379 74.2466 33.9731 74.2466 33.9731L76.0076 35.6248C76.0076 35.6248 72.8348 43.1246 71.0591 44.2678C69.2834 45.411 65.7056 49.9133 60.9039 49.8516C58.4238 49.831 58.1567 39.8449 58.1567 39.8449Z" fill="#CA9777"/>
<path d="M74.2466 33.973C74.2466 33.973 73.8357 31.8923 74.4755 31.7307C75.1154 31.569 75.2387 33.0561 75.2387 33.0561C75.2387 33.0561 77.3255 30.0585 78.6903 31.7189C80.0551 33.3793 76.0223 35.6245 76.0223 35.6245L74.2466 33.973Z" fill="#CA9777"/>
<path d="M42.055 55.106C42.055 55.106 37.1358 58.7443 34.4473 60.2489C31.9408 61.6508 29.0469 64.2928 29.0469 64.6132C29.0469 64.9335 29.6163 67.6108 31.1014 67.8253C32.5865 68.0398 47.8311 66.7996 49.8387 65.439C49.8328 65.439 45.8529 55.1882 42.055 55.106Z" fill="#CA9777"/>
<path d="M27.999 59.0089C27.999 59.0089 30.6406 58.6005 32.61 60.1668C32.8723 60.3681 33.19 60.4839 33.5201 60.4986C33.8503 60.5134 34.177 60.4263 34.4561 60.2491C34.4561 60.2491 39.1522 61.936 37.6583 67.4786C37.6583 67.4786 32.0582 68.3896 31.1043 67.8254C30.1504 67.2611 27.999 59.0089 27.999 59.0089Z" fill="white"/>
<path d="M31.0954 67.8256C31.0954 67.8256 28.1898 67.7991 27.0656 65.1483C25.9415 62.4975 25.8623 59.7674 27.6292 59.1238C29.3961 58.4802 30.7638 59.2031 31.5592 60.408C32.3546 61.6129 35.1252 67.0497 31.0954 67.8256Z" fill="#3D2216"/>
<path d="M64.3145 55.106C64.3145 55.106 69.2307 58.7443 71.9221 60.2489C74.4286 61.6508 77.3226 64.2928 77.3226 64.6132C77.3226 64.9335 76.7532 67.6108 75.2681 67.8253C73.7829 68.0398 58.5383 66.7996 56.5308 65.439C56.5366 65.439 60.5166 55.1882 64.3145 55.106Z" fill="#CA9777"/>
<path d="M78.376 59.0089C78.376 59.0089 75.7345 58.6005 73.7651 60.1668C73.5034 60.3683 73.1862 60.4842 72.8564 60.4989C72.5267 60.5137 72.2004 60.4264 71.9219 60.2491C71.9219 60.2491 67.2258 61.936 68.7197 67.4786C68.7197 67.4786 74.3198 68.3896 75.2737 67.8254C76.2276 67.2611 78.376 59.0089 78.376 59.0089Z" fill="white"/>
<path d="M75.2738 67.8256C75.2738 67.8256 78.1795 67.7991 79.3007 65.1483C80.4219 62.4975 80.5041 59.7674 78.7401 59.1238C76.9762 58.4802 75.6055 59.2031 74.8101 60.408C74.0147 61.6129 71.244 67.0497 75.2738 67.8256Z" fill="#3D2216"/>
<path d="M42.7917 51.7056C42.7917 51.7056 51.3473 56.4988 64.1852 52.5108C64.7219 53.0245 65.213 53.584 65.6527 54.183C66.5332 55.6701 66.316 56.5517 66.316 56.5517C66.316 56.5517 58.7201 60.3134 58.1596 66.0177C58.1596 66.0177 51.7817 68.3482 48.967 65.809C48.967 65.809 44.858 56.4929 40.8135 56.011C41.0985 54.4314 41.7791 52.95 42.7917 51.7056V51.7056Z" fill="white"/>
<defs>
<clipPath id="clip0">
<rect width="246" height="228" fill="white"/>
</clipPath>
</defs>
</svg>
