<svg width="228" height="249" viewBox="0 0 228 249" fill="none" xmlns="http://www.w3.org/2000/svg">
<path d="M114 237.475C176.96 237.475 228 186.436 228 123.475C228 60.5149 176.96 9.47534 114 9.47534C51.0395 9.47534 0 60.5149 0 123.475C0 186.436 51.0395 237.475 114 237.475Z" fill="#FFF7F4"/>
<path fill-rule="evenodd" clip-rule="evenodd" d="M106.316 25.9043C108.851 25.7073 111.414 25.6069 114 25.6069C116.586 25.6069 119.149 25.7073 121.685 25.9043L121.439 29.0665C118.985 28.8758 116.504 28.7787 114 28.7787C111.496 28.7787 109.016 28.8758 106.561 29.0665L106.316 25.9043ZM81.3204 31.1964C86.1062 29.5015 91.063 28.1684 96.1578 27.2298L96.7325 30.349C91.8036 31.257 87.0086 32.5467 82.3792 34.1862L81.3204 31.1964ZM131.842 27.2298C136.937 28.1684 141.894 29.5015 146.68 31.1964L145.621 34.1862C140.992 32.5467 136.197 31.257 131.268 30.349L131.842 27.2298ZM58.5616 42.8121C62.7671 39.9163 67.2106 37.3407 71.8568 35.1207L73.2242 37.9825C68.7292 40.1303 64.4299 42.6223 60.3604 45.4245L58.5616 42.8121ZM156.143 35.1207C160.79 37.3407 165.233 39.9163 169.439 42.8121L167.64 45.4245C163.57 42.6223 159.271 40.1303 154.776 37.9825L156.143 35.1207ZM177.562 49.0543C181.458 52.3854 185.09 56.0171 188.421 59.9137L186.01 61.9747C182.787 58.2037 179.272 54.6889 175.501 51.4652L177.562 49.0543ZM39.579 59.9137C42.9101 56.0172 46.5418 52.3854 50.4383 49.0543L52.4993 51.4652C48.7284 54.6889 45.2136 58.2037 41.9899 61.9747L39.579 59.9137ZM194.663 68.0369C197.559 72.2424 200.135 76.6859 202.355 81.3321L199.493 82.6995C197.345 78.2046 194.853 73.9053 192.051 69.8357L194.663 68.0369ZM25.6453 81.3321C27.8654 76.6859 30.441 72.2424 33.3368 68.0369L35.9491 69.8357C33.1469 73.9053 30.6549 78.2046 28.5072 82.6995L25.6453 81.3321ZM206.279 90.7957C207.974 95.5815 209.307 100.538 210.246 105.633L207.127 106.208C206.219 101.279 204.929 96.484 203.289 91.8545L206.279 90.7957ZM17.7544 105.633C18.693 100.538 20.0262 95.5815 21.7211 90.7957L24.7109 91.8545C23.0714 96.484 21.7817 101.279 20.8737 106.208L17.7544 105.633ZM16.1316 123.475C16.1316 120.89 16.2319 118.327 16.4289 115.791L19.5911 116.037C19.4005 118.491 19.3033 120.972 19.3033 123.475C19.3033 125.979 19.4005 128.46 19.5911 130.914L16.4289 131.16C16.2319 128.624 16.1316 126.061 16.1316 123.475ZM211.571 115.791C211.768 118.327 211.869 120.89 211.869 123.475C211.869 126.061 211.768 128.624 211.571 131.16L208.409 130.914C208.6 128.46 208.697 125.979 208.697 123.475C208.697 120.972 208.6 118.491 208.409 116.037L211.571 115.791ZM21.7211 156.155C20.0262 151.369 18.693 146.413 17.7544 141.318L20.8737 140.743C21.7817 145.672 23.0714 150.467 24.7109 155.096L21.7211 156.155ZM210.246 141.318C209.307 146.413 207.974 151.369 206.279 156.155L203.289 155.096C204.929 150.467 206.219 145.672 207.127 140.743L210.246 141.318ZM33.3368 178.914C30.441 174.708 27.8654 170.265 25.6453 165.619L28.5072 164.251C30.6549 168.746 33.1469 173.046 35.9491 177.115L33.3368 178.914ZM202.355 165.619C200.135 170.265 197.559 174.708 194.663 178.914L192.051 177.115C194.853 173.046 197.345 168.746 199.493 164.251L202.355 165.619ZM188.421 187.037C185.09 190.934 181.458 194.566 177.562 197.897L175.501 195.486C179.272 192.262 182.787 188.747 186.01 184.976L188.421 187.037ZM50.4383 197.897C46.5418 194.566 42.9101 190.934 39.579 187.037L41.9899 184.976C45.2136 188.747 48.7284 192.262 52.4993 195.486L50.4383 197.897ZM169.439 204.139C165.233 207.035 160.79 209.61 156.143 211.83L154.776 208.968C159.271 206.821 163.57 204.329 167.64 201.526L169.439 204.139ZM71.8568 211.83C67.2106 209.61 62.7671 207.035 58.5616 204.139L60.3604 201.526C64.4299 204.329 68.7292 206.821 73.2242 208.968L71.8568 211.83ZM96.1578 219.721C91.063 218.783 86.1062 217.449 81.3204 215.754L82.3792 212.765C87.0086 214.404 91.8036 215.694 96.7325 216.602L96.1578 219.721ZM146.68 215.754C141.894 217.449 136.937 218.783 131.842 219.721L131.268 216.602C136.197 215.694 140.992 214.404 145.621 212.765L146.68 215.754ZM114 221.344C111.414 221.344 108.851 221.244 106.316 221.047L106.561 217.884C109.016 218.075 111.496 218.172 114 218.172C116.504 218.172 118.985 218.075 121.439 217.884L121.685 221.047C119.149 221.244 116.586 221.344 114 221.344Z" fill="#FFECE5"/>
<path d="M106.531 4.4208C106.531 4.4208 105.972 0.597401 101.12 0.647709C96.2677 0.698017 93.2939 3.92331 93.2939 13.0905C93.2939 22.2577 94.5516 47.4061 94.5516 51.8611C94.5516 56.3162 103.389 62.8171 111.668 60.0054C111.668 60.0054 107.704 57.4845 107.704 47.7918C107.704 38.0991 106.531 4.4208 106.531 4.4208Z" fill="#282828"/>
<path d="M160.421 123.069C158.557 121.128 157.106 118.829 156.156 116.311C154.697 112.678 151.863 112.896 151.573 111.806C151.282 110.716 148.811 92.9012 147.067 87.8145C145.323 82.7278 143.579 73.2811 142.266 64.6226C140.952 55.964 137.978 50.4413 133.982 48.4123C129.985 46.3832 120.242 45.3602 118.979 42.5989C117.715 39.8376 118.269 32.0566 118.269 32.0566L113.674 31.833L109.102 32.051C109.102 32.051 109.661 39.8264 108.392 42.5933C107.123 45.3602 97.3911 46.372 93.3888 48.4067C89.3865 50.4413 86.4128 55.9696 85.1048 64.617C83.7968 73.2644 82.0472 82.7167 80.3032 87.8089C78.5592 92.9012 76.0885 110.727 75.7978 111.8C75.5071 112.873 72.6731 112.672 71.2142 116.306C70.2575 118.825 68.7989 121.125 66.9268 123.064C65.7642 124.305 68.8889 124.813 71.7955 121.387C71.7955 121.387 69.5596 132.147 70.1186 133.237C70.6776 134.327 71.4266 133.382 71.7173 132.678C72.008 131.974 73.2489 124.757 73.5395 124.612C73.8302 124.467 72.6172 133.746 72.7346 134.422C72.9191 135.439 74.4451 135.696 74.7358 134.316C75.0264 132.935 75.7196 125.931 76.1556 125.411C76.5916 124.891 75.8258 133.187 76.0829 133.952C76.34 134.718 77.2456 134.059 77.5362 132.242C77.8269 130.425 78.2629 125.339 78.7716 124.936C79.2802 124.534 78.7324 130.571 79.4256 130.789C80.1187 131.007 80.2249 130.828 80.5435 127.77C80.8621 124.713 81.9577 119.123 81.9242 117.597C81.8907 116.071 81.2702 114.215 81.4882 112.941C81.7062 111.666 89.2803 96.6687 90.2977 93.1304C91.315 89.5921 90.8287 85.4724 91.4156 83.3874C92.0025 81.3024 94.7695 72.6271 95.2446 72.4371C95.7197 72.247 98.1513 86.0537 97.9612 89.7654C97.7712 93.477 90.2026 108.67 89.1406 117.491C88.0785 126.311 96.0216 162.08 96.6029 166.831C97.1843 171.583 93.2099 178.072 94.177 186.312C95.144 194.551 101.354 223.053 101.544 225.865C101.734 228.677 96.4073 238.856 96.8936 241.181C97.3799 243.506 100.773 245.653 102.998 247.481C105.222 249.308 108.722 249.42 109.784 248.157C110.846 246.894 111.433 243.506 111.237 241.08C111.041 238.654 107.945 229.739 107.945 226.547C107.945 223.355 110.365 186.804 110.561 182.343C110.756 177.882 110.365 171.197 110.756 168.29C111.147 165.384 112.115 154.042 112.21 147.155C112.305 140.269 112.696 128.352 113.663 128.352C114.63 128.352 115.021 140.274 115.116 147.155C115.211 154.037 116.184 165.384 116.57 168.29C116.955 171.197 116.57 177.888 116.765 182.343C116.961 186.798 119.381 223.35 119.381 226.547C119.381 229.744 116.279 238.666 116.089 241.08C115.899 243.495 116.475 246.899 117.542 248.157C118.61 249.415 122.098 249.325 124.328 247.481C126.558 245.636 129.946 243.506 130.432 241.181C130.919 238.856 125.586 228.677 125.782 225.865C125.977 223.053 132.176 194.562 133.149 186.312C134.121 178.061 130.142 171.577 130.723 166.831C131.304 162.086 139.253 126.311 138.185 117.491C137.118 108.67 129.56 93.4546 129.365 89.7654C129.169 86.0761 131.6 72.2694 132.081 72.4371C132.562 72.6048 135.329 81.3024 135.91 83.3874C136.491 85.4724 136.005 89.5921 137.028 93.1304C138.051 96.6687 145.62 111.672 145.838 112.941C146.056 114.209 145.441 116.065 145.402 117.597C145.362 119.128 146.458 124.718 146.782 127.77C147.106 130.822 147.218 131.007 147.9 130.789C148.582 130.571 148.046 124.539 148.554 124.936C149.063 125.333 149.499 130.425 149.79 132.242C150.08 134.059 150.991 134.713 151.243 133.952C151.494 133.192 150.734 124.903 151.17 125.411C151.606 125.92 152.288 132.935 152.59 134.316C152.892 135.696 154.407 135.434 154.591 134.422C154.709 133.746 153.473 124.467 153.786 124.612C154.099 124.757 155.318 131.951 155.609 132.678C155.899 133.405 156.626 134.355 157.207 133.237C157.789 132.119 155.53 121.387 155.53 121.387C158.459 124.819 161.584 124.31 160.421 123.069Z" fill="#E4977F"/>
<path opacity="0.32" d="M118.146 35.3937C118.146 33.5099 118.263 32.0398 118.263 32.0398L113.674 31.833L109.102 32.051C109.102 32.051 109.202 33.5435 109.219 35.4608C110.514 36.4233 112.077 36.9586 113.691 36.9924C115.31 36.9595 116.875 36.3981 118.146 35.3937V35.3937Z" fill="#A04848"/>
<path d="M130.734 166.792C131.293 162.041 139.264 126.272 138.196 117.451C137.336 110.296 132.193 98.9267 130.181 92.9233H97.1675C95.1552 98.9267 90.0126 110.296 89.1517 117.451C88.0841 126.272 96.0327 162.041 96.6141 166.792C97.1954 171.543 93.2211 178.033 94.1881 186.272C95.1552 194.512 101.365 223.014 101.555 225.826C101.555 225.826 104.663 229.52 108.006 225.01C108.347 217.34 110.393 186.384 110.572 182.298C110.767 177.826 110.376 171.152 110.767 168.245C111.159 165.339 112.126 153.997 112.221 147.111C112.316 140.224 112.707 128.307 113.674 128.307C114.641 128.307 115.032 140.23 115.127 147.111C115.222 153.992 116.195 165.339 116.581 168.245C116.966 171.152 116.581 177.843 116.776 182.298C116.955 186.384 119.012 217.34 119.342 225.01C122.696 229.52 125.793 225.826 125.793 225.826C125.983 223.031 132.187 194.523 133.16 186.272C134.133 178.022 130.153 171.538 130.734 166.792Z" fill="#47537F"/>
<path d="M129.376 89.7261C129.186 86.0424 131.612 72.2301 132.092 72.3978C132.718 61.3636 129.493 50.3629 128.207 46.4836C126.749 46.0979 125.256 45.7122 123.898 45.2986C122.78 50.8157 119.426 59.5525 113.674 59.5525C107.922 59.5525 104.591 50.8157 103.45 45.2986C102.092 45.7122 100.6 46.0979 99.1407 46.4836C97.855 50.3629 94.6297 61.3636 95.2558 72.3978C95.7421 72.2021 98.1625 86.0144 97.9724 89.7261C97.883 91.4365 96.206 95.6288 94.3279 100.514C98.0674 101.856 105.507 104.075 113.674 104.075C121.841 104.075 129.281 101.839 133.02 100.514C131.142 95.6288 129.465 91.4365 129.376 89.7261Z" fill="#C3DEE5"/>
<path d="M113.674 2.38623C104.367 2.38623 98.6991 9.14985 99.7891 19.2561C100.879 29.3624 107.782 33.3591 113.674 33.3591C119.566 33.3591 126.469 29.3569 127.559 19.2561C128.649 9.15544 122.981 2.38623 113.674 2.38623Z" fill="#E4977F"/>
<path d="M106.665 18.9373C106.815 19.316 107.083 19.6366 107.429 19.8519C107.775 20.0672 108.181 20.1659 108.587 20.1335C108.939 20.1356 109.282 20.0185 109.559 19.8013C109.836 19.5842 110.031 19.2796 110.113 18.9373" stroke="#58272D" stroke-width="1.5" stroke-linecap="round" stroke-linejoin="round"/>
<path opacity="0.32" d="M108.515 23.1633C108.515 24.8794 106.838 26.2712 104.809 26.2712C102.78 26.2712 101.103 24.8794 101.103 23.1633C101.103 21.4473 102.78 20.0554 104.809 20.0554C106.838 20.0554 108.515 21.4473 108.515 23.1633Z" fill="#A04848"/>
<path d="M120.684 18.9373C120.533 19.316 120.265 19.6366 119.919 19.8519C119.573 20.0672 119.167 20.1659 118.761 20.1335C118.409 20.1356 118.066 20.0185 117.789 19.8013C117.512 19.5842 117.317 19.2796 117.235 18.9373" stroke="#58272D" stroke-width="1.5" stroke-linecap="round" stroke-linejoin="round"/>
<path opacity="0.32" d="M118.833 23.1633C118.833 24.8794 120.51 26.2712 122.539 26.2712C124.568 26.2712 126.245 24.8794 126.245 23.1633C126.245 21.4473 124.568 20.0554 122.539 20.0554C120.51 20.0554 118.833 21.4473 118.833 23.1633Z" fill="#A04848"/>
<path d="M116.754 13.2025C117.301 13.0243 117.883 12.982 118.45 13.0794C119.017 13.1768 119.551 13.4109 120.007 13.7615C120.51 14.1129 120.921 14.5809 121.203 15.1254C121.276 15.2819 121.673 16.1931 121.5 16.3719C121.5 16.4837 120.717 15.7347 120.656 15.6788C120.16 15.2536 119.631 14.8685 119.074 14.5273C118.58 14.2011 118.06 13.9151 117.52 13.6721C117.374 13.6106 116.586 13.3591 116.754 13.2025Z" fill="#282828"/>
<path d="M110.594 13.2025C110.047 13.0243 109.465 12.982 108.898 13.0794C108.331 13.1768 107.797 13.4109 107.341 13.7615C106.838 14.1129 106.427 14.5809 106.145 15.1254C106.072 15.2819 105.675 16.1931 105.848 16.3719C105.848 16.4837 106.631 15.7347 106.692 15.6788C107.188 15.2536 107.717 14.8685 108.274 14.5273C108.769 14.2011 109.288 13.9151 109.828 13.6721C109.974 13.6106 110.762 13.3591 110.594 13.2025Z" fill="#282828"/>
<path d="M114.183 14.0183C113.839 16.5732 113.669 19.1486 113.674 21.7266C113.674 21.7266 116.223 21.2179 116.586 21.7266C116.95 22.2353 114.037 25.3599 114.037 25.3599" stroke="#A04848" stroke-linecap="round" stroke-linejoin="round"/>
<path d="M111.131 26.2712C111.131 26.2712 113.305 28.8873 116.614 26.2712" stroke="#A04848" stroke-linecap="round" stroke-linejoin="round"/>
<path d="M127.252 21.274C127.464 23.3645 130.427 18.4455 129.521 12.7104C128.515 6.31015 123.177 0.060791 113.674 0.060791C104.171 0.060791 98.8333 6.31015 97.8271 12.716C96.9216 18.4511 98.0172 21.587 100.097 21.2795C102.295 19.8903 104.135 18.002 105.466 15.7681C106.798 13.5342 107.584 11.0177 107.76 8.42308C107.76 8.42308 110.84 11.285 116.911 12.3024C122.981 13.3197 127.011 18.9318 127.252 21.274Z" fill="#282828"/>
<path d="M99.2358 8.32812C99.2358 8.32812 98.1626 14.734 103.3 18.6301" stroke="#3C3C3C" stroke-linecap="round" stroke-linejoin="round"/>
<path d="M104.691 16.9531C104.691 16.9531 102.003 16.1146 99.5042 12.7664" stroke="#3C3C3C" stroke-linecap="round" stroke-linejoin="round"/>
<path d="M118.459 0.647949C118.459 0.647949 125.507 5.56136 124.367 16.3831" stroke="#3C3C3C" stroke-linecap="round" stroke-linejoin="round"/>
<path d="M120.684 13.5771C120.684 13.5771 122.713 11.5984 122.618 5.85767" stroke="#3C3C3C" stroke-linecap="round" stroke-linejoin="round"/>
<path d="M109.582 19.7871C109.582 19.7871 110.046 20.5641 111.673 20.961" stroke="#58272D" stroke-linecap="round" stroke-linejoin="round"/>
<path d="M120.153 19.7871C120.153 19.7871 120.617 20.5641 122.243 20.961" stroke="#58272D" stroke-linecap="round" stroke-linejoin="round"/>
<path d="M103.299 28.4013L100.096 21.2743C100.096 21.2743 98.6263 17.2553 95.4625 18.7086C92.2987 20.162 96.3121 30.7546 103.299 28.4013Z" fill="#BC5555"/>
<path d="M100.074 21.2124C99.8786 20.7317 98.3973 17.3555 95.4626 18.7082C94.1994 19.2672 94.082 21.3242 94.8422 23.4148C96.4464 20.933 98.5817 20.8323 100.074 21.2124Z" fill="#D67B6E"/>
<path d="M124.049 28.4013L127.252 21.2743C127.252 21.2743 128.722 17.2553 131.885 18.7086C135.049 20.162 131.036 30.7546 124.049 28.4013Z" fill="#BC5555"/>
<path d="M127.274 21.2124C127.47 20.7317 128.951 17.3555 131.885 18.7082C133.149 19.2672 133.266 21.3242 132.506 23.4148C130.902 20.933 128.794 20.8323 127.274 21.2124Z" fill="#E4977F"/>
<path d="M149.734 87.2274C149.734 87.2274 143.412 85.8467 143.026 86.1094C142.64 86.3721 140.231 88.731 139.208 88.5857C138.185 88.4403 132.12 87.4677 130.153 87.546C128.185 87.6242 127.291 86.2547 128.252 85.3827C128.686 85.0269 129.19 84.7684 129.732 84.6247C130.274 84.481 130.841 84.4555 131.394 84.5498C132.347 84.673 133.313 84.6542 134.261 84.494C134.624 84.3654 131.466 81.6991 130.348 81.2016C129.23 80.7041 124.317 79.2787 123.518 79.0607C122.718 78.8427 122.461 77.4229 124.423 77.2776C124.423 77.2776 122.651 76.7186 122.92 76.1149C123.188 75.5112 123.624 74.9522 126.609 75.4218C126.424 75.2743 126.295 75.0685 126.242 74.8381C126.189 74.6076 126.216 74.3661 126.318 74.1529C126.715 73.4598 133.803 74.5162 135.547 74.8069C137.291 75.0976 142.383 80.1842 143.149 80.514C143.915 80.8438 150.237 81.7494 150.237 81.7494C150.768 83.5732 150.588 85.5308 149.734 87.2274V87.2274Z" fill="#FAB393"/>
<path d="M124.468 77.3057C126.68 77.4717 128.869 77.8613 131.002 78.4683C132.002 78.9215 132.963 79.4562 133.875 80.067" stroke="#E58A7F" stroke-linecap="round" stroke-linejoin="round"/>
<path d="M126.654 75.45C127.995 75.6344 131.997 76.0089 132.942 76.3611C133.825 76.7622 134.672 77.2371 135.474 77.7809" stroke="#E58A7F" stroke-linecap="round" stroke-linejoin="round"/>
<path d="M149.734 95.6345C149.734 95.6345 143.412 97.0152 143.026 96.7245C142.64 96.4339 140.231 94.1085 139.208 94.2538C138.185 94.3992 132.12 95.3718 130.153 95.288C128.185 95.2041 127.291 96.5792 128.252 97.4512C128.685 97.808 129.19 98.0675 129.732 98.2122C130.274 98.3568 130.84 98.3833 131.394 98.2897C132.347 98.165 133.313 98.182 134.261 98.34C134.624 98.4685 131.466 101.135 130.348 101.632C129.23 102.13 124.317 103.555 123.518 103.773C122.718 103.991 122.461 105.411 124.423 105.556C124.423 105.556 122.651 106.115 122.92 106.719C123.188 107.323 123.624 107.882 126.609 107.412C126.424 107.56 126.295 107.765 126.242 107.996C126.189 108.226 126.216 108.468 126.318 108.681C126.715 109.374 133.803 108.318 135.547 108.027C137.291 107.736 142.383 102.65 143.149 102.32C143.915 101.99 150.237 101.085 150.237 101.085C150.761 99.2693 150.581 97.3232 149.734 95.6345V95.6345Z" fill="#FAB393"/>
<path d="M124.468 105.556C126.68 105.389 128.869 104.997 131.002 104.388C132.002 103.935 132.963 103.4 133.875 102.79" stroke="#E58A7F" stroke-linecap="round" stroke-linejoin="round"/>
<path d="M126.654 107.412C127.995 107.228 131.997 106.853 132.942 106.501C133.814 106.1 134.652 105.627 135.446 105.087" stroke="#E58A7F" stroke-linecap="round" stroke-linejoin="round"/>
<path d="M135.944 4.27563C135.944 4.27563 126.922 10.2735 126.592 11.4082C126.262 12.5429 126.212 16.5564 126.033 17.7861C125.854 19.0158 124.004 22.5989 123.909 23.5939C123.842 24.2926 124.323 24.7789 125.144 24.5553C125.038 24.9044 124.909 25.2461 124.759 25.5782C124.2 26.6962 121.88 29.1166 121.964 29.7817C122.047 30.4469 122.338 30.6314 122.908 30.6761C122.908 30.6761 122.103 32.0959 123.663 31.9059C125.222 31.7158 131.69 26.5676 132.048 25.1031C132.405 23.6386 132.517 16.2713 132.662 15.567C132.808 14.8627 139.46 9.23376 139.46 9.23376L135.944 4.27563Z" fill="#FAB393"/>
<path d="M125.133 24.555C125.566 24.4196 125.966 24.1949 126.307 23.8954C127.816 22.621 128.666 20.5919 128.621 19.4236C128.577 18.2554 129.918 17.3945 129.918 17.3945" stroke="#E58A7F" stroke-linecap="round" stroke-linejoin="round"/>
<path d="M122.908 30.6759C122.908 30.6759 127.526 27.7971 128.867 25.6954C129.433 24.8889 129.794 23.9563 129.918 22.9788" stroke="#E58A7F" stroke-linecap="round" stroke-linejoin="round"/>
<path d="M87.4358 9.23376C87.4358 9.23376 94.11 14.8571 94.2385 15.567C94.3671 16.2769 94.4733 23.6386 94.8534 25.1031C95.2335 26.5676 101.701 31.7158 103.238 31.9059C104.775 32.0959 103.998 30.6761 103.998 30.6761C104.12 30.6855 104.243 30.6692 104.359 30.6283C104.474 30.5873 104.58 30.5226 104.669 30.4384C104.758 30.3541 104.828 30.2522 104.875 30.1391C104.923 30.026 104.946 29.9043 104.943 29.7817C105.038 29.1166 102.707 26.7074 102.148 25.5782C101.997 25.2469 101.87 24.905 101.768 24.5553C102.584 24.7789 103.065 24.2926 102.998 23.5939C102.903 22.5989 101.064 19.0103 100.874 17.7861C100.684 16.5619 100.639 12.5429 100.315 11.4082C99.9904 10.2735 90.9797 4.27563 90.9797 4.27563L87.4358 9.23376Z" fill="#FAB393"/>
<path d="M101.785 24.5552C101.35 24.4131 100.95 24.1807 100.611 23.8732C99.1015 22.5987 98.2519 20.5697 98.2966 19.4014C98.3413 18.2331 97.0054 17.3723 97.0054 17.3723" stroke="#E58A7F" stroke-linecap="round" stroke-linejoin="round"/>
<path d="M104.015 30.6759C104.015 30.6759 99.3922 27.7971 98.0507 25.6954C97.4842 24.8895 97.1252 23.9565 97.0054 22.9788" stroke="#E58A7F" stroke-linecap="round" stroke-linejoin="round"/>
<path d="M135.502 38.9543C135.502 38.9543 128.873 44.0634 128.319 44.2982C127.766 44.5329 123.02 44.6671 122.378 45.4944C121.735 46.3217 119.985 49.3122 119.801 50.1451C119.616 50.9779 119.018 55.3435 119.527 55.4386C120.035 55.5336 121.411 54.5163 122.014 52.9958C122.618 51.4754 122.702 50.3295 123.3 50.0053C123.898 49.6811 123.624 51.7549 123.3 53.2306C122.976 54.7063 119.678 58.2614 119.326 59.2117C118.973 60.1619 120.125 60.3296 120.125 60.3296C120.125 60.3296 119.482 61.5705 119.756 62.0792C120.03 62.5879 121.276 62.4929 121.276 62.4929C121.276 62.4929 121.276 63.186 121.735 63.3201C122.193 63.4543 128.644 60.5253 129.426 59.7315C130.209 58.9378 131.562 50.6034 132.12 49.7314C132.679 48.8594 139.298 44.7565 139.437 44.1416C139.577 43.5268 139.141 40.3853 135.502 38.9543Z" fill="#FAB393"/>
<path d="M120.125 60.3187C120.952 59.905 124.865 56.9648 125.234 56.2661C125.598 55.3586 125.892 54.4241 126.111 53.4712" stroke="#E58A7F" stroke-linecap="round" stroke-linejoin="round"/>
<path d="M121.276 62.4651C122.288 62.0514 127.425 58.7814 127.721 58.3231C128.017 57.8647 128.28 55.6064 128.28 55.6064" stroke="#E58A7F" stroke-linecap="round" stroke-linejoin="round"/>
<path d="M91.4212 38.9543C91.4212 38.9543 98.0507 44.0634 98.5984 44.2982C99.1462 44.5329 103.903 44.6671 104.54 45.4944C105.178 46.3217 106.933 49.3122 107.117 50.1451C107.302 50.9779 107.9 55.3435 107.397 55.4386C106.894 55.5336 105.507 54.5163 104.909 52.9958C104.311 51.4754 104.216 50.3295 103.618 50.0053C103.02 49.6811 103.299 51.7549 103.618 53.2306C103.937 54.7063 107.24 58.2614 107.592 59.2117C107.945 60.1619 106.799 60.3296 106.799 60.3296C106.799 60.3296 107.441 61.5705 107.162 62.0792C106.882 62.5879 105.647 62.4929 105.647 62.4929C105.647 62.4929 105.647 63.186 105.183 63.3201C104.719 63.4543 98.2798 60.5253 97.4973 59.7315C96.7147 58.9378 95.3787 50.6146 94.7806 49.7426C94.1825 48.8706 87.5978 44.7677 87.458 44.1528C87.3183 43.538 87.7823 40.3853 91.4212 38.9543Z" fill="#FAB393"/>
<path d="M106.799 60.3187C105.966 59.905 102.053 56.9648 101.684 56.2661C101.321 55.3587 101.029 54.4242 100.812 53.4712" stroke="#E58A7F" stroke-linecap="round" stroke-linejoin="round"/>
<path d="M105.647 62.4651C104.63 62.0514 99.4983 58.7814 99.1964 58.3231C98.8946 57.8647 98.6375 55.6064 98.6375 55.6064" stroke="#E58A7F" stroke-linecap="round" stroke-linejoin="round"/>
<path d="M135.502 190.795C135.502 190.795 128.873 185.686 128.319 185.456C127.766 185.227 123.02 185.088 122.378 184.26C121.735 183.433 119.985 180.437 119.801 179.61C119.616 178.782 119.018 174.405 119.527 174.316C120.035 174.227 121.411 175.233 122.014 176.753C122.618 178.274 122.702 179.425 123.3 179.749C123.898 180.073 123.624 178 123.3 176.524C122.976 175.048 119.678 171.493 119.326 170.537C118.973 169.581 120.125 169.419 120.125 169.419C120.125 169.419 119.482 168.173 119.756 167.67C120.03 167.167 121.276 167.251 121.276 167.251C121.276 167.251 121.276 166.563 121.735 166.423C122.193 166.284 128.644 169.218 129.426 170.018C130.209 170.817 131.562 179.151 132.12 180.023C132.679 180.895 139.298 184.998 139.437 185.613C139.577 186.228 139.141 189.352 135.502 190.795Z" fill="#FAB393"/>
<path d="M120.125 169.436C120.952 169.85 124.865 172.79 125.234 173.483C125.597 174.391 125.891 175.325 126.111 176.278" stroke="#E58A7F" stroke-linecap="round" stroke-linejoin="round"/>
<path d="M121.276 167.267C122.288 167.687 127.425 170.951 127.721 171.415C128.017 171.879 128.28 174.132 128.28 174.132" stroke="#E58A7F" stroke-linecap="round" stroke-linejoin="round"/>
<path d="M91.4212 190.795C91.4212 190.795 98.0506 185.686 98.5817 185.44C99.1127 185.194 103.886 185.071 104.524 184.243C105.161 183.416 106.916 180.42 107.1 179.593C107.285 178.765 107.883 174.389 107.38 174.299C106.877 174.21 105.491 175.216 104.893 176.736C104.294 178.257 104.199 179.408 103.601 179.732C103.003 180.057 103.283 177.983 103.601 176.507C103.92 175.031 107.223 171.476 107.576 170.52C107.928 169.565 106.782 169.403 106.782 169.403C106.782 169.403 107.425 168.156 107.145 167.653C106.866 167.15 105.63 167.234 105.63 167.234C105.63 167.234 105.63 166.546 105.166 166.406C104.702 166.267 98.263 169.201 97.4805 170.001C96.6979 170.8 95.362 179.118 94.7639 179.99C94.1657 180.862 87.581 184.964 87.4413 185.579C87.3015 186.194 87.7822 189.352 91.4212 190.795Z" fill="#FAB393"/>
<path d="M106.799 169.436C105.966 169.85 102.053 172.79 101.684 173.483C101.322 174.391 101.03 175.325 100.812 176.278" stroke="#E58A7F" stroke-linecap="round" stroke-linejoin="round"/>
<path d="M105.647 167.267C104.63 167.687 99.4983 170.951 99.1964 171.415C98.8946 171.879 98.6375 174.132 98.6375 174.132" stroke="#E58A7F" stroke-linecap="round" stroke-linejoin="round"/>
<path d="M77.1839 87.2274C77.1839 87.2274 83.5115 85.8467 83.8916 86.1094C84.2717 86.3721 86.6865 88.731 87.7094 88.5857C88.7324 88.4403 94.7973 87.4677 96.7593 87.546C98.7213 87.6242 99.6212 86.2547 98.6654 85.3827C98.2311 85.0285 97.7262 84.771 97.1845 84.6274C96.6428 84.4837 96.0767 84.4573 95.5239 84.5498C94.5687 84.673 93.6005 84.6542 92.6508 84.494C92.2875 84.3654 95.4457 81.6991 96.5636 81.2016C97.6816 80.7041 102.595 79.2787 103.394 79.0607C104.194 78.8427 104.451 77.4229 102.489 77.2776C102.489 77.2776 104.261 76.7186 103.992 76.1149C103.724 75.5112 103.288 74.9522 100.309 75.4218C100.493 75.2737 100.622 75.068 100.674 74.8377C100.727 74.6075 100.701 74.3663 100.599 74.1529C100.197 73.4598 93.1092 74.5162 91.3651 74.8069C89.6211 75.0976 84.5289 80.1842 83.7687 80.514C83.0084 80.8438 76.6808 81.7494 76.6808 81.7494C76.1477 83.5731 76.3275 85.5313 77.1839 87.2274Z" fill="#FAB393"/>
<path d="M102.45 77.3057C100.247 77.4741 98.0676 77.8636 95.9432 78.4683C94.9439 78.9228 93.9831 79.4574 93.0701 80.067" stroke="#E58A7F" stroke-linecap="round" stroke-linejoin="round"/>
<path d="M100.259 75.45C98.9116 75.6344 94.9149 76.0089 93.9703 76.3611C93.0958 76.764 92.2563 77.2389 91.4604 77.7809" stroke="#E58A7F" stroke-linecap="round" stroke-linejoin="round"/>
<path d="M77.1839 95.6345C77.1839 95.6345 83.5115 97.0152 83.8916 96.7245C84.2717 96.4339 86.6865 94.1085 87.7094 94.2538C88.7323 94.3992 94.7972 95.3718 96.7592 95.288C98.7213 95.2041 99.6212 96.5792 98.6654 97.4512C98.2313 97.8061 97.7267 98.0644 97.185 98.209C96.6433 98.3536 96.077 98.3811 95.5239 98.2897C94.5689 98.165 93.6008 98.1819 92.6508 98.34C92.2874 98.4685 95.4456 101.135 96.5636 101.632C97.6816 102.13 102.595 103.555 103.394 103.773C104.194 103.991 104.451 105.411 102.489 105.556C102.489 105.556 104.261 106.115 103.992 106.719C103.724 107.323 103.288 107.882 100.309 107.412C100.493 107.56 100.621 107.766 100.674 107.996C100.727 108.226 100.701 108.468 100.599 108.681C100.197 109.374 93.1091 108.318 91.3651 108.027C89.6211 107.736 84.5288 102.65 83.7686 102.32C83.0084 101.99 76.6808 101.085 76.6808 101.085C76.155 99.2694 76.3347 97.3227 77.1839 95.6345V95.6345Z" fill="#FAB393"/>
<path d="M102.45 105.556C100.247 105.386 98.0674 104.995 95.9432 104.388C94.9439 103.934 93.9831 103.399 93.0701 102.79" stroke="#E58A7F" stroke-linecap="round" stroke-linejoin="round"/>
<path d="M100.259 107.412C98.9116 107.228 94.9149 106.853 93.9703 106.501C93.0963 106.099 92.2569 105.626 91.4604 105.087" stroke="#E58A7F" stroke-linecap="round" stroke-linejoin="round"/>
<path d="M116.145 5.85739C116.145 6.34605 116 6.82373 115.728 7.23003C115.457 7.63633 115.071 7.953 114.62 8.14C114.168 8.327 113.671 8.37593 113.192 8.2806C112.713 8.18527 112.273 7.94996 111.927 7.60443C111.581 7.2589 111.346 6.81867 111.251 6.3394C111.156 5.86014 111.204 5.36337 111.391 4.91191C111.578 4.46045 111.895 4.07458 112.301 3.8031C112.708 3.53162 113.185 3.38672 113.674 3.38672C114.329 3.38672 114.958 3.64702 115.421 4.11036C115.884 4.5737 116.145 5.20213 116.145 5.85739Z" fill="#FFF4F0"/>
<path d="M116.145 60.011C116.145 60.4996 116 60.9773 115.728 61.3836C115.457 61.7899 115.071 62.1066 114.62 62.2936C114.168 62.4806 113.671 62.5295 113.192 62.4342C112.713 62.3388 112.273 62.1035 111.927 61.758C111.581 61.4125 111.346 60.9722 111.251 60.493C111.156 60.0137 111.204 59.5169 111.391 59.0655C111.578 58.614 111.895 58.2281 112.301 57.9567C112.708 57.6852 113.185 57.5403 113.674 57.5403C114.329 57.5403 114.958 57.8006 115.421 58.2639C115.884 58.7273 116.145 59.3557 116.145 60.011Z" fill="#FFF4F0"/>
<path d="M116.827 91.7718C116.828 92.3956 116.644 93.0056 116.298 93.5248C115.952 94.044 115.46 94.449 114.884 94.6884C114.308 94.9279 113.674 94.9911 113.062 94.8701C112.451 94.7491 111.888 94.4493 111.447 94.0086C111.005 93.5679 110.705 93.0062 110.582 92.3945C110.46 91.7828 110.522 91.1486 110.761 90.5722C110.999 89.9958 111.403 89.5031 111.922 89.1565C112.441 88.8098 113.05 88.6248 113.674 88.6248C114.509 88.6248 115.31 88.9561 115.901 89.5462C116.492 90.1362 116.825 90.9366 116.827 91.7718V91.7718Z" fill="#FFF4F0"/>
<path d="M115.821 111.258C115.821 111.683 115.695 112.098 115.459 112.451C115.223 112.804 114.888 113.079 114.495 113.241C114.103 113.404 113.672 113.446 113.255 113.363C112.839 113.28 112.456 113.076 112.156 112.776C111.856 112.476 111.652 112.093 111.569 111.677C111.486 111.26 111.529 110.829 111.691 110.437C111.853 110.044 112.129 109.709 112.482 109.473C112.835 109.237 113.25 109.112 113.674 109.112C114.243 109.112 114.789 109.338 115.192 109.74C115.594 110.143 115.821 110.689 115.821 111.258Z" fill="#FFF4F0"/>
<path d="M113.674 14.3203C114.458 14.3203 115.094 13.6846 115.094 12.9005C115.094 12.1164 114.458 11.4807 113.674 11.4807C112.89 11.4807 112.254 12.1164 112.254 12.9005C112.254 13.6846 112.89 14.3203 113.674 14.3203Z" fill="#FFF4F0"/>
<path d="M113.674 39.8376C114.458 39.8376 115.094 39.202 115.094 38.4178C115.094 37.6337 114.458 36.998 113.674 36.998C112.89 36.998 112.254 37.6337 112.254 38.4178C112.254 39.202 112.89 39.8376 113.674 39.8376Z" fill="#FFF4F0"/>
<path d="M115.094 78.6752C115.094 78.956 115.011 79.2305 114.855 79.464C114.699 79.6975 114.477 79.8794 114.218 79.9869C113.958 80.0944 113.673 80.1225 113.397 80.0677C113.122 80.0129 112.869 79.8777 112.67 79.6791C112.472 79.4806 112.336 79.2276 112.282 78.9522C112.227 78.6767 112.255 78.3913 112.362 78.1318C112.47 77.8724 112.652 77.6507 112.885 77.4946C113.119 77.3386 113.393 77.2554 113.674 77.2554C114.051 77.2554 114.412 77.405 114.678 77.6712C114.944 77.9375 115.094 78.2986 115.094 78.6752V78.6752Z" fill="#FFF4F0"/>
</svg>
