<svg width="191" height="53" viewBox="0 0 191 53" fill="none" xmlns="http://www.w3.org/2000/svg">
<path d="M55.4883 15.6266H56.1883C58.3844 15.6266 59.4825 14.5766 59.4825 12.4765C59.4825 11.4608 59.2697 10.7265 58.8442 10.2736C58.4187 9.8069 57.7462 9.57356 56.8265 9.57356C56.2363 9.57356 55.7903 9.60101 55.4883 9.65591V15.6266ZM55.1383 9.01767L57.4442 8.95591C60.7109 8.95591 62.3443 10.1295 62.3443 12.4765C62.3443 13.5197 61.9737 14.3707 61.2325 15.0295C60.4913 15.6883 59.5374 16.0178 58.3707 16.0178H57.8971C59.4619 16.2236 60.5325 16.6972 61.109 17.4384C61.6992 18.1796 61.9943 19.3051 61.9943 20.8149C61.9943 21.7482 62.1864 22.3178 62.5707 22.5237C62.708 22.6061 62.907 22.6473 63.1678 22.6473C63.4423 22.6473 63.8129 22.5374 64.2796 22.3178L64.3002 22.812C63.559 23.1277 62.8041 23.2855 62.0354 23.2855C60.4982 23.2855 59.5717 22.709 59.256 21.5561C59.1462 21.0757 59.0913 20.4786 59.0913 19.7649C59.0913 19.0374 59.0432 18.4815 58.9472 18.0972C58.8648 17.6992 58.7344 17.3766 58.556 17.1295C58.1579 16.5256 57.4099 16.2236 56.3118 16.2236H55.4883V22.1325L57.053 22.3178V22.812H51.2471V22.3178L52.7706 22.1531V9.69709L51 9.45003V8.93532C52.153 8.99022 53.1892 9.01767 54.1089 9.01767H55.1383Z" fill="#1E1E1E"/>
<path d="M73.9618 21.5561C73.001 22.5443 71.6902 23.0384 70.0294 23.0384C68.3686 23.0384 67.0578 22.5443 66.097 21.5561C65.1362 20.5678 64.6558 19.3119 64.6558 17.7884C64.6558 16.2648 65.1362 15.0089 66.097 14.0207C67.0578 13.0324 68.3686 12.5383 70.0294 12.5383C71.6902 12.5383 73.001 13.0324 73.9618 14.0207C74.9226 15.0089 75.403 16.2648 75.403 17.7884C75.403 19.3119 74.9226 20.5678 73.9618 21.5561ZM67.5176 17.7884C67.5176 20.959 68.3549 22.5443 70.0294 22.5443C71.7039 22.5443 72.5412 20.959 72.5412 17.7884C72.5412 16.2374 72.3559 15.0638 71.9853 14.2677C71.6147 13.4579 70.9627 13.053 70.0294 13.053C69.0961 13.053 68.4441 13.4579 68.0735 14.2677C67.7029 15.0638 67.5176 16.2374 67.5176 17.7884Z" fill="#1E1E1E"/>
<path d="M80.3156 10.4177C80.3156 12.4216 80.3019 13.6775 80.2744 14.1854C81.0156 13.0873 82.1411 12.5383 83.6509 12.5383C84.8588 12.5383 85.8676 12.9363 86.6775 13.7324C87.501 14.5148 87.9128 15.7638 87.9128 17.4795C87.9128 19.1815 87.4324 20.5404 86.4716 21.5561C85.5245 22.558 84.1657 23.059 82.395 23.059C82.0107 23.059 81.5646 22.9835 81.0568 22.8326C80.5627 22.6953 80.1578 22.5031 79.8421 22.2561L77.7009 23.2031V8.13237L75.9303 8.02942V7.51471L80.3156 7V10.4177ZM82.4362 22.4414C82.8892 22.4414 83.2803 22.3316 83.6098 22.112C83.9392 21.8923 84.1931 21.6178 84.3715 21.2884C84.55 20.959 84.6941 20.5404 84.8039 20.0325C84.9549 19.2502 85.0304 18.2688 85.0304 17.0884C85.0304 14.4805 84.3647 13.1765 83.0333 13.1765C82.3333 13.1765 81.7088 13.4442 81.1597 13.9795C80.6244 14.5148 80.3431 15.0501 80.3156 15.5854L80.3568 21.6796C80.8784 22.1874 81.5715 22.4414 82.4362 22.4414Z" fill="#1E1E1E"/>
<path d="M95.295 22.112C94.7185 21.7414 94.4303 21.2678 94.4303 20.6913C94.4303 19.8953 95.0617 19.4011 96.3244 19.209C96.5441 20.4855 97.0107 21.3708 97.7245 21.8649C98.3558 22.3041 99.0215 22.5237 99.7215 22.5237C100.435 22.5237 101.046 22.311 101.554 21.8855C102.076 21.4463 102.336 20.7325 102.336 19.7443C102.336 19.0031 102.069 18.4198 101.533 17.9943C101.012 17.555 100.346 17.1707 99.5363 16.8413C98.7264 16.5119 98.1774 16.2854 97.8892 16.1619C97.6009 16.0246 97.2303 15.8256 96.7774 15.5648C96.3382 15.304 96.0088 15.057 95.7892 14.8236C95.2401 14.1922 94.9656 13.4648 94.9656 12.6412C94.9656 11.351 95.446 10.3765 96.4068 9.71768C97.3676 9.05885 98.7059 8.72943 100.422 8.72943C101.396 8.72943 102.528 8.83924 103.819 9.05885V12.1059H103.139L102.316 9.6765C101.629 9.45689 100.929 9.34709 100.216 9.34709C99.5157 9.34709 98.9049 9.57356 98.3833 10.0265C97.8617 10.4657 97.6009 11.1246 97.6009 12.003C97.6009 13.005 98.0539 13.753 98.9598 14.2471C99.4127 14.4805 99.948 14.7138 100.566 14.9472C101.183 15.1805 101.629 15.3589 101.904 15.4825C102.178 15.5923 102.542 15.7776 102.995 16.0383C103.448 16.2854 103.784 16.5325 104.004 16.7795C104.224 17.0266 104.423 17.356 104.601 17.7678C104.779 18.1658 104.869 18.605 104.869 19.0854C104.869 20.2521 104.375 21.2061 103.386 21.9472C102.398 22.6884 101.046 23.059 99.3304 23.059C97.6284 23.059 96.2833 22.7433 95.295 22.112Z" fill="#1E1E1E"/>
<path d="M109.959 23.0384C108.641 23.0384 107.804 22.5786 107.447 21.659C107.296 21.261 107.22 20.76 107.22 20.156C107.22 17.8776 107.255 15.5923 107.323 13.3001H105.923V12.7648H107.344L107.364 9.73827H110L109.938 12.7648H112.82V13.3001H109.938L109.897 14.9677C109.856 17.1913 109.835 19.2296 109.835 21.0825C109.835 21.6178 109.89 21.9816 110 22.1737C110.123 22.3659 110.336 22.462 110.638 22.462C110.954 22.462 111.297 22.2492 111.667 21.8237C112.052 21.3845 112.326 20.8629 112.491 20.259C112.765 20.259 112.903 20.3551 112.903 20.5472C112.903 20.5884 112.896 20.6364 112.882 20.6913C112.662 21.4051 112.285 21.9747 111.75 22.4002C111.228 22.8257 110.631 23.0384 109.959 23.0384Z" fill="#1E1E1E"/>
<path d="M117.393 19.9502C117.393 20.76 117.489 21.3502 117.681 21.7208C117.887 22.0914 118.292 22.2767 118.896 22.2767C119.5 22.2767 120.097 21.8992 120.687 21.1443C121.277 20.3894 121.572 19.7374 121.572 19.1884V13.4236L119.946 13.3413V12.8677L124.208 12.6001V22.1531L125.875 22.2355V22.709L121.655 22.9561L121.758 20.8972H121.552C120.756 22.311 119.603 23.0178 118.093 23.0178C115.897 23.0178 114.799 21.961 114.799 19.8472C114.799 17.7335 114.874 15.5923 115.025 13.4236L113.502 13.3413V12.8677L117.599 12.6412C117.462 15.7432 117.393 18.1796 117.393 19.9502Z" fill="#1E1E1E"/>
<path d="M130.261 19.9502C130.261 20.76 130.357 21.3502 130.549 21.7208C130.755 22.0914 131.16 22.2767 131.764 22.2767C132.368 22.2767 132.965 21.8992 133.555 21.1443C134.145 20.3894 134.44 19.7374 134.44 19.1884V13.4236L132.814 13.3413V12.8677L137.076 12.6001V22.1531L138.743 22.2355V22.709L134.523 22.9561L134.625 20.8972H134.42C133.624 22.311 132.471 23.0178 130.961 23.0178C128.765 23.0178 127.667 21.961 127.667 19.8472C127.667 17.7335 127.742 15.5923 127.893 13.4236L126.369 13.3413V12.8677L130.467 12.6412C130.329 15.7432 130.261 18.1796 130.261 19.9502Z" fill="#1E1E1E"/>
<path d="M143.417 15.1942C143.65 14.453 144.076 13.8217 144.693 13.3001C145.325 12.7785 145.894 12.5177 146.402 12.5177C146.924 12.5177 147.274 12.6481 147.452 12.9089C147.631 13.156 147.72 13.3618 147.72 13.5266C147.72 14.0893 147.514 14.4942 147.102 14.7413C146.828 14.5217 146.416 14.4119 145.867 14.4119C145.331 14.4119 144.796 14.5834 144.261 14.9266C143.726 15.256 143.458 15.6197 143.458 16.0178V22.2149L145.311 22.3384V22.812H139.567V22.3384L140.926 22.2355V13.4442L139.258 13.3618V12.8883L143.458 12.6618L143.334 15.1942H143.417Z" fill="#1E1E1E"/>
<path d="M156.503 22.2149L156.627 15.6883C156.627 14.8785 156.524 14.2883 156.318 13.9177C156.126 13.5471 155.728 13.3618 155.124 13.3618C154.534 13.3618 153.95 13.7256 153.374 14.453C152.797 15.1668 152.488 15.8119 152.447 16.3884V22.2149L153.991 22.3384V22.812H148.474V22.3384L149.833 22.2149V13.4442L148.144 13.3618V12.9295L152.365 12.6824L152.262 14.7825H152.468C153.25 13.3413 154.403 12.6207 155.927 12.6207C157.752 12.6207 158.816 13.3413 159.118 14.7825C159.489 14.0962 159.983 13.5677 160.6 13.1971C161.218 12.8128 161.89 12.6207 162.618 12.6207C164.814 12.6207 165.912 13.6775 165.912 15.7913C165.912 16.3952 165.864 18.5364 165.768 22.2149L167.189 22.3384V22.812H162.206V22.3384L163.194 22.2149L163.318 15.6883C163.318 14.8785 163.215 14.2883 163.009 13.9177C162.803 13.5471 162.419 13.3618 161.856 13.3618C161.307 13.3618 160.786 13.6226 160.291 14.1442C159.797 14.6658 159.44 15.2285 159.221 15.8325C159.221 16.4364 159.173 18.5639 159.077 22.2149L160.497 22.3384V22.812H155.515V22.3384L156.503 22.2149Z" fill="#1E1E1E"/>
<path d="M174.148 17.9943C172.556 17.9943 171.554 18.4129 171.142 19.2502C170.963 19.607 170.874 20.0531 170.874 20.5884C170.874 21.508 171.19 22.0433 171.821 22.1943C171.917 22.2218 172.02 22.2355 172.13 22.2355C172.569 22.2355 173.008 22.009 173.448 21.5561C173.887 21.0894 174.12 20.4923 174.148 19.7649V17.9943ZM170.854 15.9766C170.552 16.1825 170.236 16.2854 169.906 16.2854C169.577 16.2854 169.296 16.1756 169.062 15.956C168.829 15.7364 168.712 15.4138 168.712 14.9883C168.712 14.5491 168.843 14.1579 169.103 13.8148C169.364 13.4716 169.701 13.2177 170.112 13.053C170.922 12.7099 171.691 12.5383 172.418 12.5383C174.038 12.5383 175.143 12.8265 175.733 13.403C176.323 13.9658 176.618 14.8374 176.618 16.0178V22.2149L178.348 22.3384V22.7914L174.415 23.0384L174.23 21.309C173.585 22.4757 172.473 23.059 170.895 23.059C170.181 23.059 169.563 22.8463 169.042 22.4208C168.534 21.9816 168.28 21.3708 168.28 20.5884C168.294 19.5453 168.815 18.7629 169.845 18.2413C170.874 17.706 172.308 17.4384 174.148 17.4384V15.6678C174.148 14.8305 174.031 14.1854 173.798 13.7324C173.564 13.2795 173.132 13.053 172.501 13.053C171.869 13.053 171.396 13.3138 171.08 13.8354C170.874 14.1785 170.771 14.5423 170.771 14.9266C170.771 15.3109 170.799 15.6609 170.854 15.9766Z" fill="#1E1E1E"/>
<path d="M187.006 22.2149L187.129 15.6883C187.129 14.8785 187.026 14.2883 186.821 13.9177C186.615 13.5471 186.203 13.3618 185.585 13.3618C184.968 13.3618 184.364 13.7324 183.773 14.4736C183.197 15.2011 182.895 15.8325 182.868 16.3678V22.2149L184.412 22.3384V22.812H178.894V22.3384L180.253 22.2149V13.4442L178.565 13.3618V12.9295L182.785 12.6824L182.682 14.7825H182.888C183.259 14.0962 183.76 13.5677 184.391 13.1971C185.022 12.8128 185.702 12.6207 186.429 12.6207C188.625 12.6207 189.724 13.6775 189.724 15.7913C189.724 17.3148 189.675 19.456 189.579 22.2149L191 22.3384V22.812H186.018V22.3384L187.006 22.2149Z" fill="#1E1E1E"/>
<path d="M52.2442 32.9452V36.1308H55.7168V37.1562H52.2442V40.4375H56.127V41.4629H51V31.9198H56.127V32.9452H52.2442Z" fill="#1E1E1E"/>
<path d="M61.7967 33.8339C62.7082 33.8339 63.4465 34.1119 64.0116 34.6679C64.5767 35.2148 64.8593 36.0077 64.8593 37.0468V41.4629H63.6288V37.2246C63.6288 36.4771 63.4419 35.9075 63.0682 35.5155C62.6945 35.1145 62.1841 34.914 61.537 34.914C60.8807 34.914 60.3566 35.1191 59.9647 35.5292C59.5819 35.9394 59.3905 36.5364 59.3905 37.3203V41.4629H58.1463V33.9706H59.3905V35.037C59.6365 34.6542 59.9692 34.358 60.3885 34.1483C60.8169 33.9387 61.2863 33.8339 61.7967 33.8339Z" fill="#1E1E1E"/>
<path d="M73.8643 37.4296C73.8643 37.6666 73.8506 37.9173 73.8233 38.1816H67.835C67.8805 38.9199 68.1312 39.4987 68.5869 39.9179C69.0518 40.3281 69.6123 40.5332 70.2686 40.5332C70.8063 40.5332 71.253 40.4101 71.6084 40.164C71.973 39.9088 72.2282 39.5716 72.3741 39.1523H73.7139C73.5134 39.8724 73.1124 40.4603 72.5108 40.916C71.9092 41.3626 71.1618 41.5859 70.2686 41.5859C69.5576 41.5859 68.9196 41.4264 68.3545 41.1074C67.7985 40.7884 67.361 40.3372 67.042 39.7539C66.723 39.1614 66.5635 38.4778 66.5635 37.7031C66.5635 36.9283 66.7184 36.2493 67.0283 35.6659C67.3382 35.0826 67.7712 34.636 68.3271 34.3261C68.8923 34.0071 69.5394 33.8476 70.2686 33.8476C70.9795 33.8476 71.6084 34.0025 72.1553 34.3124C72.7022 34.6223 73.1215 35.0507 73.4131 35.5976C73.7139 36.1353 73.8643 36.746 73.8643 37.4296ZM72.5791 37.1699C72.5791 36.6959 72.4743 36.2903 72.2647 35.9531C72.055 35.6067 71.7679 35.3469 71.4034 35.1737C71.0479 34.9915 70.6514 34.9003 70.2139 34.9003C69.585 34.9003 69.0472 35.1008 68.6006 35.5019C68.1631 35.9029 67.9124 36.4589 67.8486 37.1699H72.5791Z" fill="#1E1E1E"/>
<path d="M76.8874 35.1874C77.1062 34.759 77.4161 34.4263 77.8171 34.1894C78.2273 33.9524 78.724 33.8339 79.3074 33.8339V35.1191H78.9793C77.5847 35.1191 76.8874 35.8756 76.8874 37.3886V41.4629H75.6433V33.9706H76.8874V35.1874Z" fill="#1E1E1E"/>
<path d="M83.9702 33.8476C84.6173 33.8476 85.1824 33.9888 85.6655 34.2714C86.1577 34.554 86.5223 34.9094 86.7593 35.3378V33.9706H88.0171V41.6269C88.0171 42.3105 87.8713 42.9167 87.5796 43.4453C87.2879 43.9831 86.8686 44.4024 86.3218 44.7031C85.784 45.0039 85.1551 45.1543 84.435 45.1543C83.4506 45.1543 82.6303 44.9219 81.9741 44.457C81.3178 43.9922 80.9304 43.3587 80.8119 42.5566H82.0424C82.1791 43.0124 82.4617 43.377 82.8901 43.6504C83.3185 43.933 83.8335 44.0742 84.435 44.0742C85.1186 44.0742 85.6746 43.86 86.103 43.4316C86.5405 43.0033 86.7593 42.4017 86.7593 41.6269V40.0547C86.5132 40.4922 86.1486 40.8568 85.6655 41.1484C85.1824 41.4401 84.6173 41.5859 83.9702 41.5859C83.3048 41.5859 82.6987 41.4219 82.1518 41.0937C81.614 40.7656 81.1902 40.3053 80.8803 39.7129C80.5704 39.1204 80.4155 38.4459 80.4155 37.6894C80.4155 36.9238 80.5704 36.2538 80.8803 35.6796C81.1902 35.0963 81.614 34.6451 82.1518 34.3261C82.6987 34.0071 83.3048 33.8476 83.9702 33.8476ZM86.7593 37.7031C86.7593 37.138 86.6453 36.6458 86.4175 36.2265C86.1896 35.8072 85.8797 35.4882 85.4878 35.2695C85.105 35.0416 84.6811 34.9277 84.2163 34.9277C83.7514 34.9277 83.3276 35.037 82.9448 35.2558C82.562 35.4745 82.2566 35.7935 82.0288 36.2128C81.8009 36.6321 81.687 37.1243 81.687 37.6894C81.687 38.2636 81.8009 38.7649 82.0288 39.1933C82.2566 39.6126 82.562 39.9362 82.9448 40.164C83.3276 40.3828 83.7514 40.4922 84.2163 40.4922C84.6811 40.4922 85.105 40.3828 85.4878 40.164C85.8797 39.9362 86.1896 39.6126 86.4175 39.1933C86.6453 38.7649 86.7593 38.2682 86.7593 37.7031Z" fill="#1E1E1E"/>
<path d="M97.0923 37.4296C97.0923 37.6666 97.0787 37.9173 97.0513 38.1816H91.063C91.1085 38.9199 91.3592 39.4987 91.8149 39.9179C92.2798 40.3281 92.8403 40.5332 93.4966 40.5332C94.0344 40.5332 94.481 40.4101 94.8364 40.164C95.201 39.9088 95.4562 39.5716 95.6021 39.1523H96.9419C96.7414 39.8724 96.3404 40.4603 95.7388 40.916C95.1372 41.3626 94.3898 41.5859 93.4966 41.5859C92.7856 41.5859 92.1476 41.4264 91.5825 41.1074C91.0265 40.7884 90.589 40.3372 90.27 39.7539C89.951 39.1614 89.7915 38.4778 89.7915 37.7031C89.7915 36.9283 89.9464 36.2493 90.2563 35.6659C90.5662 35.0826 90.9992 34.636 91.5552 34.3261C92.1203 34.0071 92.7674 33.8476 93.4966 33.8476C94.2075 33.8476 94.8364 34.0025 95.3833 34.3124C95.9302 34.6223 96.3495 35.0507 96.6411 35.5976C96.9419 36.1353 97.0923 36.746 97.0923 37.4296ZM95.8072 37.1699C95.8072 36.6959 95.7023 36.2903 95.4927 35.9531C95.2831 35.6067 94.9959 35.3469 94.6314 35.1737C94.2759 34.9915 93.8794 34.9003 93.4419 34.9003C92.813 34.9003 92.2752 35.1008 91.8286 35.5019C91.3911 35.9029 91.1404 36.4589 91.0766 37.1699H95.8072Z" fill="#1E1E1E"/>
<path d="M100.389 34.996V39.4121C100.389 39.7767 100.466 40.0364 100.621 40.1914C100.776 40.3372 101.045 40.4101 101.428 40.4101H102.344V41.4629H101.223C100.53 41.4629 100.011 41.3034 99.6643 40.9844C99.3179 40.6653 99.1447 40.1412 99.1447 39.4121V34.996H98.174V33.9706H99.1447V32.0839H100.389V33.9706H102.344V34.996H100.389Z" fill="#1E1E1E"/>
<path d="M104.631 32.7538C104.394 32.7538 104.193 32.6718 104.029 32.5077C103.865 32.3436 103.783 32.1431 103.783 31.9061C103.783 31.6692 103.865 31.4686 104.029 31.3046C104.193 31.1405 104.394 31.0585 104.631 31.0585C104.859 31.0585 105.05 31.1405 105.205 31.3046C105.369 31.4686 105.451 31.6692 105.451 31.9061C105.451 32.1431 105.369 32.3436 105.205 32.5077C105.05 32.6718 104.859 32.7538 104.631 32.7538ZM105.232 33.9706V41.4629H103.988V33.9706H105.232Z" fill="#1E1E1E"/>
<path d="M110.142 41.5859C109.568 41.5859 109.053 41.4902 108.597 41.2988C108.141 41.0983 107.781 40.8248 107.517 40.4785C107.252 40.123 107.107 39.7174 107.079 39.2617H108.364C108.401 39.6354 108.574 39.9407 108.884 40.1777C109.203 40.4147 109.618 40.5332 110.128 40.5332C110.602 40.5332 110.976 40.4284 111.249 40.2187C111.523 40.0091 111.659 39.7448 111.659 39.4257C111.659 39.0976 111.514 38.8561 111.222 38.7011C110.93 38.5371 110.479 38.3776 109.868 38.2226C109.312 38.0768 108.857 37.9309 108.501 37.7851C108.155 37.6302 107.854 37.4068 107.599 37.1152C107.353 36.8144 107.23 36.4225 107.23 35.9394C107.23 35.5566 107.344 35.2056 107.571 34.8866C107.799 34.5676 108.123 34.317 108.542 34.1347C108.961 33.9433 109.44 33.8476 109.978 33.8476C110.807 33.8476 111.477 34.0572 111.988 34.4765C112.498 34.8958 112.771 35.47 112.808 36.1992H111.564C111.536 35.8072 111.377 35.4928 111.085 35.2558C110.803 35.0188 110.42 34.9003 109.937 34.9003C109.49 34.9003 109.135 34.996 108.87 35.1874C108.606 35.3788 108.474 35.6295 108.474 35.9394C108.474 36.1855 108.551 36.3906 108.706 36.5546C108.87 36.7096 109.071 36.8372 109.308 36.9374C109.554 37.0286 109.891 37.1334 110.32 37.2519C110.857 37.3977 111.295 37.5436 111.632 37.6894C111.969 37.8261 112.256 38.0358 112.493 38.3183C112.74 38.6009 112.867 38.97 112.876 39.4257C112.876 39.8359 112.762 40.2051 112.534 40.5332C112.307 40.8613 111.983 41.1211 111.564 41.3125C111.154 41.4948 110.68 41.5859 110.142 41.5859Z" fill="#1E1E1E"/>
<path d="M114.304 37.7031C114.304 36.9283 114.459 36.2538 114.769 35.6796C115.079 35.0963 115.508 34.6451 116.054 34.3261C116.61 34.0071 117.244 33.8476 117.955 33.8476C118.875 33.8476 119.632 34.0709 120.224 34.5175C120.826 34.9641 121.222 35.5839 121.414 36.3769H120.074C119.946 35.9212 119.696 35.5611 119.322 35.2968C118.957 35.0325 118.502 34.9003 117.955 34.9003C117.244 34.9003 116.67 35.1464 116.232 35.6386C115.795 36.1217 115.576 36.8098 115.576 37.7031C115.576 38.6054 115.795 39.3027 116.232 39.7949C116.67 40.2871 117.244 40.5332 117.955 40.5332C118.502 40.5332 118.957 40.4056 119.322 40.1504C119.687 39.8952 119.937 39.5306 120.074 39.0566H121.414C121.213 39.8222 120.812 40.4375 120.211 40.9023C119.609 41.3581 118.857 41.5859 117.955 41.5859C117.244 41.5859 116.61 41.4264 116.054 41.1074C115.508 40.7884 115.079 40.3372 114.769 39.7539C114.459 39.1705 114.304 38.4869 114.304 37.7031Z" fill="#1E1E1E"/>
<path d="M126.929 33.8339C127.495 33.8339 128.005 33.9569 128.461 34.203C128.916 34.44 129.272 34.8 129.527 35.2831C129.791 35.7662 129.924 36.3541 129.924 37.0468V41.4629H128.693V37.2246C128.693 36.4771 128.506 35.9075 128.133 35.5155C127.759 35.1145 127.248 34.914 126.601 34.914C125.945 34.914 125.421 35.1191 125.029 35.5292C124.646 35.9394 124.455 36.5364 124.455 37.3203V41.4629H123.211V31.3456H124.455V35.037C124.701 34.6542 125.038 34.358 125.467 34.1483C125.904 33.9387 126.392 33.8339 126.929 33.8339Z" fill="#1E1E1E"/>
<path d="M138.964 33.8476C139.611 33.8476 140.177 33.9888 140.66 34.2714C141.152 34.554 141.516 34.9094 141.753 35.3378V33.9706H143.011V41.6269C143.011 42.3105 142.865 42.9167 142.574 43.4453C142.282 43.9831 141.863 44.4024 141.316 44.7031C140.778 45.0039 140.149 45.1543 139.429 45.1543C138.445 45.1543 137.624 44.9219 136.968 44.457C136.312 43.9922 135.925 43.3587 135.806 42.5566H137.037C137.173 43.0124 137.456 43.377 137.884 43.6504C138.313 43.933 138.828 44.0742 139.429 44.0742C140.113 44.0742 140.669 43.86 141.097 43.4316C141.535 43.0033 141.753 42.4017 141.753 41.6269V40.0547C141.507 40.4922 141.143 40.8568 140.66 41.1484C140.177 41.4401 139.611 41.5859 138.964 41.5859C138.299 41.5859 137.693 41.4219 137.146 41.0937C136.608 40.7656 136.184 40.3053 135.874 39.7129C135.564 39.1204 135.41 38.4459 135.41 37.6894C135.41 36.9238 135.564 36.2538 135.874 35.6796C136.184 35.0963 136.608 34.6451 137.146 34.3261C137.693 34.0071 138.299 33.8476 138.964 33.8476ZM141.753 37.7031C141.753 37.138 141.639 36.6458 141.412 36.2265C141.184 35.8072 140.874 35.4882 140.482 35.2695C140.099 35.0416 139.675 34.9277 139.21 34.9277C138.746 34.9277 138.322 35.037 137.939 35.2558C137.556 35.4745 137.251 35.7935 137.023 36.2128C136.795 36.6321 136.681 37.1243 136.681 37.6894C136.681 38.2636 136.795 38.7649 137.023 39.1933C137.251 39.6126 137.556 39.9362 137.939 40.164C138.322 40.3828 138.746 40.4922 139.21 40.4922C139.675 40.4922 140.099 40.3828 140.482 40.164C140.874 39.9362 141.184 39.6126 141.412 39.1933C141.639 38.7649 141.753 38.2682 141.753 37.7031Z" fill="#1E1E1E"/>
<path d="M152.086 37.4296C152.086 37.6666 152.073 37.9173 152.045 38.1816H146.057C146.103 38.9199 146.353 39.4987 146.809 39.9179C147.274 40.3281 147.834 40.5332 148.491 40.5332C149.028 40.5332 149.475 40.4101 149.831 40.164C150.195 39.9088 150.45 39.5716 150.596 39.1523H151.936C151.735 39.8724 151.334 40.4603 150.733 40.916C150.131 41.3626 149.384 41.5859 148.491 41.5859C147.78 41.5859 147.142 41.4264 146.577 41.1074C146.021 40.7884 145.583 40.3372 145.264 39.7539C144.945 39.1614 144.786 38.4778 144.786 37.7031C144.786 36.9283 144.941 36.2493 145.25 35.6659C145.56 35.0826 145.993 34.636 146.549 34.3261C147.114 34.0071 147.762 33.8476 148.491 33.8476C149.202 33.8476 149.831 34.0025 150.377 34.3124C150.924 34.6223 151.344 35.0507 151.635 35.5976C151.936 36.1353 152.086 36.746 152.086 37.4296ZM150.801 37.1699C150.801 36.6959 150.696 36.2903 150.487 35.9531C150.277 35.6067 149.99 35.3469 149.625 35.1737C149.27 34.9915 148.873 34.9003 148.436 34.9003C147.807 34.9003 147.269 35.1008 146.823 35.5019C146.385 35.9029 146.135 36.4589 146.071 37.1699H150.801Z" fill="#1E1E1E"/>
<path d="M157.516 33.8339C158.427 33.8339 159.166 34.1119 159.731 34.6679C160.296 35.2148 160.578 36.0077 160.578 37.0468V41.4629H159.348V37.2246C159.348 36.4771 159.161 35.9075 158.787 35.5155C158.414 35.1145 157.903 34.914 157.256 34.914C156.6 34.914 156.076 35.1191 155.684 35.5292C155.301 35.9394 155.11 36.5364 155.11 37.3203V41.4629H153.865V33.9706H155.11V35.037C155.356 34.6542 155.688 34.358 156.108 34.1483C156.536 33.9387 157.005 33.8339 157.516 33.8339Z" fill="#1E1E1E"/>
<path d="M169.583 37.4296C169.583 37.6666 169.57 37.9173 169.542 38.1816H163.554C163.6 38.9199 163.85 39.4987 164.306 39.9179C164.771 40.3281 165.331 40.5332 165.988 40.5332C166.525 40.5332 166.972 40.4101 167.328 40.164C167.692 39.9088 167.947 39.5716 168.093 39.1523H169.433C169.232 39.8724 168.831 40.4603 168.23 40.916C167.628 41.3626 166.881 41.5859 165.988 41.5859C165.277 41.5859 164.639 41.4264 164.074 41.1074C163.518 40.7884 163.08 40.3372 162.761 39.7539C162.442 39.1614 162.283 38.4778 162.283 37.7031C162.283 36.9283 162.437 36.2493 162.747 35.6659C163.057 35.0826 163.49 34.636 164.046 34.3261C164.611 34.0071 165.258 33.8476 165.988 33.8476C166.699 33.8476 167.328 34.0025 167.874 34.3124C168.421 34.6223 168.841 35.0507 169.132 35.5976C169.433 36.1353 169.583 36.746 169.583 37.4296ZM168.298 37.1699C168.298 36.6959 168.193 36.2903 167.984 35.9531C167.774 35.6067 167.487 35.3469 167.122 35.1737C166.767 34.9915 166.37 34.9003 165.933 34.9003C165.304 34.9003 164.766 35.1008 164.32 35.5019C163.882 35.9029 163.632 36.4589 163.568 37.1699H168.298Z" fill="#1E1E1E"/>
<path d="M172.292 40.4375H175.97V41.4629H170.87V40.4375L174.507 34.9823H170.898V33.9706H175.942V34.9823L172.292 40.4375Z" fill="#1E1E1E"/>
<path d="M184.557 37.4296C184.557 37.6666 184.543 37.9173 184.516 38.1816H178.528C178.573 38.9199 178.824 39.4987 179.28 39.9179C179.744 40.3281 180.305 40.5332 180.961 40.5332C181.499 40.5332 181.946 40.4101 182.301 40.164C182.666 39.9088 182.921 39.5716 183.067 39.1523H184.407C184.206 39.8724 183.805 40.4603 183.203 40.916C182.602 41.3626 181.854 41.5859 180.961 41.5859C180.25 41.5859 179.612 41.4264 179.047 41.1074C178.491 40.7884 178.054 40.3372 177.735 39.7539C177.416 39.1614 177.256 38.4778 177.256 37.7031C177.256 36.9283 177.411 36.2493 177.721 35.6659C178.031 35.0826 178.464 34.636 179.02 34.3261C179.585 34.0071 180.232 33.8476 180.961 33.8476C181.672 33.8476 182.301 34.0025 182.848 34.3124C183.395 34.6223 183.814 35.0507 184.106 35.5976C184.407 36.1353 184.557 36.746 184.557 37.4296ZM183.272 37.1699C183.272 36.6959 183.167 36.2903 182.957 35.9531C182.748 35.6067 182.461 35.3469 182.096 35.1737C181.74 34.9915 181.344 34.9003 180.907 34.9003C180.278 34.9003 179.74 35.1008 179.293 35.5019C178.856 35.9029 178.605 36.4589 178.541 37.1699H183.272Z" fill="#1E1E1E"/>
<path d="M187.58 35.1874C187.799 34.759 188.109 34.4263 188.51 34.1894C188.92 33.9524 189.417 33.8339 190 33.8339V35.1191H189.672C188.277 35.1191 187.58 35.8756 187.58 37.3886V41.4629H186.336V33.9706H187.58V35.1874Z" fill="#1E1E1E"/>
<path d="M34.4585 32.2399L29.7261 26.6201L27.064 32.2399H34.4585Z" fill="#C3DEE5"/>
<path d="M0.443802 32.2399L5.17629 26.6201L7.83832 32.2399H0.443802Z" fill="#C3DEE5"/>
<path d="M27.5077 23.9582L29.4303 26.3244L33.867 21.444L34.0149 20.7046L27.5077 23.9582Z" fill="#C3DEE5"/>
<path d="M7.39456 23.9582L5.47199 26.3244L1.03528 21.444L0.887388 20.7046L7.39456 23.9582Z" fill="#C3DEE5"/>
<path d="M29.4302 26.3245L17.599 40.5219L5.47202 26.3245L10.5003 20.1131L17.599 0.887329L24.402 20.1131L29.4302 26.3245Z" fill="#7784C8"/>
<path d="M29.726 26.4724L17.599 51.9095L5.76776 26.916L17.599 40.374L29.726 26.4724Z" fill="#AFF5B8"/>
<path d="M8.87347 22.3314L7.09879 24.6977L16.8595 31.3527L8.87347 22.3314Z" fill="#FFB862"/>
<path d="M26.0288 22.3314L27.8035 24.6977L18.0427 31.3527L26.0288 22.3314Z" fill="#FFB862"/>
<path d="M14.4932 9.16919L0.443634 20.4089H34.4584L20.4088 9.16919L17.451 12.2749L14.4932 9.16919Z" fill="#FFB862"/>
<path d="M10.65 20.4089L14.643 9.0213L17.5457 12.3638L20.4108 9.0213L24.4038 20.261L17.5457 12.3638L10.65 20.4089Z" fill="#FFF8BA"/>
<path d="M24.5499 20.4087L17.599 31.7962L10.5003 20.4087H24.5499Z" fill="#FFF8BA"/>
<path d="M14.6412 9.02124L17.4511 0.73938L9.46501 9.90858L1.77472 19.0778L14.6412 9.02124Z" fill="#D85256"/>
<path d="M8.13399 32.3879H0.591583L16.4158 51.0221L17.599 51.7615L8.13399 32.3879Z" fill="#D85256"/>
<path d="M6.95085 27.064L5.91562 26.7682L7.98608 29.2823L10.3523 32.2401H17.1553V31.9443L6.95085 27.064Z" fill="#D85256"/>
<path d="M28.2471 27.064L29.2823 26.7682L27.2119 29.2823L24.8456 32.2401H18.0427V31.9443L28.2471 27.064Z" fill="#D85256"/>
<path d="M26.916 32.3879H34.4584L18.6341 51.0221L17.451 51.7615L26.916 32.3879Z" fill="#D85256"/>
<path d="M20.261 9.02124L17.4511 0.73938L25.4372 9.90858L33.1275 19.0778L20.261 9.02124Z" fill="#D85256"/>
<path d="M9.90867 21.0004L10.3523 20.4088H0.591583L7.54243 23.9582L9.90867 21.0004Z" fill="#D85256"/>
<path d="M24.9935 21.0004L24.5498 20.4088H34.3106L27.3598 23.9582L24.9935 21.0004Z" fill="#D85256"/>
<path fill-rule="evenodd" clip-rule="evenodd" d="M17.1145 12.2613L11.1474 19.19L14.6918 9.44831L17.1145 12.2613ZM17.8952 12.2613L23.8457 19.1707L20.3111 9.45611L17.8952 12.2613ZM20.0792 8.81884L17.5048 11.8081L14.9237 8.81103L17.5 1.73014L20.0792 8.81884ZM21.1026 9.90144L24.8181 20.1131H33.6932L21.1026 9.90144ZM32.3278 18.2441L18.0763 1.58374L20.7095 8.82091L32.3278 18.2441ZM24.0817 20.7047H10.9183L17.5 30.9479L24.0817 20.7047ZM10.182 20.1131L13.8935 9.91234L1.31635 20.1131H10.182ZM2.65058 18.2693L14.2866 8.83181L16.9238 1.58361L2.65058 18.2693ZM17.5001 0.000114201L17.5 0L17.5 3.0711e-05L0 20.4578L5.06031 26.3734L0 32.289L17.5 52.7468L35 32.289L29.9397 26.3734L35 20.4578L17.5001 0.000114201ZM10.418 21.0203L9.21979 22.421L16.4304 30.3775L10.418 21.0203ZM19.0373 29.6497L24.5821 21.0203L25.687 22.3121L19.0373 29.6497ZM1.3688 21.1479L5.44955 25.9184L7.01179 24.0921L1.3688 21.1479ZM7.40643 23.6308L9.90948 20.7047H1.79807L7.40643 23.6308ZM33.2521 20.7047H25.0905L27.6091 23.6489L33.2521 20.7047ZM28.0037 24.1102L29.5505 25.9184L33.5907 21.1953L28.0037 24.1102ZM17.5 12.7413L23.806 20.1131H11.194L17.5 12.7413ZM18.0534 31.9443L28.6471 26.9744L24.3958 31.9443H18.0534ZM10.6042 31.9443H16.7546L6.48156 27.1248L10.6042 31.9443ZM7.34623 24.6112L15.5161 30.2495L8.83213 22.8742L7.34623 24.6112ZM14.3466 30.1612L5.96304 26.2282L6.95963 25.0631L14.3466 30.1612ZM26.0747 22.7652L19.2922 30.2494L27.5825 24.5279L26.0747 22.7652ZM27.9691 24.9798L28.982 26.1639L20.4614 30.1612L27.9691 24.9798ZM25.1743 31.9443L28.6 27.9395L26.6867 31.9443H25.1743ZM11.1102 32.5359L17.5 40.0056L23.8898 32.5359H11.1102ZM9.82575 31.9443H8.31341L6.40032 27.9399L9.82575 31.9443ZM10.3318 32.5359L17.2441 40.6165V50.6376L8.59603 32.5359H10.3318ZM17.8357 40.5233L24.6682 32.5359H26.4041L17.8357 50.471V40.5233ZM16.7331 50.9403L7.94042 32.5359H0.989622L16.7331 50.9403ZM18.2672 50.9399L27.0597 32.5359H34.0104L18.2672 50.9399ZM27.3424 31.9443H33.9267L29.7019 27.0055L27.3424 31.9443ZM1.07335 31.9443H7.65781L5.29822 27.0054L1.07335 31.9443Z" fill="#1E1E1E"/>
</svg>
