<svg width="35" height="53" viewBox="0 0 35 53" fill="none" xmlns="http://www.w3.org/2000/svg">
<path d="M34.4586 32.2399L29.7261 26.6201L27.0641 32.2399H34.4586Z" fill="#C3DEE5"/>
<path d="M0.443864 32.2399L5.17635 26.6201L7.83838 32.2399H0.443864Z" fill="#C3DEE5"/>
<path d="M27.5077 23.9582L29.4303 26.3244L33.867 21.444L34.0149 20.7046L27.5077 23.9582Z" fill="#C3DEE5"/>
<path d="M7.39453 23.9582L5.47196 26.3244L1.03525 21.444L0.887358 20.7046L7.39453 23.9582Z" fill="#C3DEE5"/>
<path d="M29.4303 26.3245L17.5991 40.5219L5.47205 26.3245L10.5003 20.1131L17.5991 0.887329L24.402 20.1131L29.4303 26.3245Z" fill="#7784C8"/>
<path d="M29.7259 26.4724L17.5989 51.9095L5.7677 26.916L17.5989 40.374L29.7259 26.4724Z" fill="#AFF5B8"/>
<path d="M8.87344 22.3314L7.09875 24.6977L16.8595 31.3527L8.87344 22.3314Z" fill="#FFB862"/>
<path d="M26.0288 22.3314L27.8035 24.6977L18.0427 31.3527L26.0288 22.3314Z" fill="#FFB862"/>
<path d="M14.4932 9.16919L0.443604 20.4089H34.4584L20.4088 9.16919L17.451 12.2749L14.4932 9.16919Z" fill="#FFB862"/>
<path d="M10.6499 20.4089L14.6429 9.0213L17.5457 12.3638L20.4107 9.0213L24.4037 20.261L17.5457 12.3638L10.6499 20.4089Z" fill="#FFF8BA"/>
<path d="M24.5498 20.4087L17.599 31.7962L10.5002 20.4087H24.5498Z" fill="#FFF8BA"/>
<path d="M14.6411 9.02124L17.451 0.73938L9.46495 9.90858L1.77466 19.0778L14.6411 9.02124Z" fill="#D85256"/>
<path d="M8.13396 32.3879H0.591553L16.4158 51.0221L17.5989 51.7615L8.13396 32.3879Z" fill="#D85256"/>
<path d="M6.95088 27.064L5.91565 26.7682L7.98611 29.2823L10.3524 32.2401H17.1553V31.9443L6.95088 27.064Z" fill="#D85256"/>
<path d="M28.247 27.064L29.2822 26.7682L27.2118 29.2823L24.8455 32.2401H18.0426V31.9443L28.247 27.064Z" fill="#D85256"/>
<path d="M26.916 32.3879H34.4584L18.6341 51.0221L17.451 51.7615L26.916 32.3879Z" fill="#D85256"/>
<path d="M20.261 9.02124L17.4511 0.73938L25.4371 9.90858L33.1274 19.0778L20.261 9.02124Z" fill="#D85256"/>
<path d="M9.90864 21.0004L10.3523 20.4088H0.591553L7.5424 23.9582L9.90864 21.0004Z" fill="#D85256"/>
<path d="M24.9935 21.0004L24.5498 20.4088H34.3105L27.3597 23.9582L24.9935 21.0004Z" fill="#D85256"/>
<path fill-rule="evenodd" clip-rule="evenodd" d="M17.1145 12.2613L11.1474 19.19L14.6918 9.44831L17.1145 12.2613ZM17.8952 12.2613L23.8457 19.1707L20.3111 9.45611L17.8952 12.2613ZM20.0792 8.81884L17.5048 11.8081L14.9237 8.81103L17.5 1.73014L20.0792 8.81884ZM21.1026 9.90144L24.8181 20.1131H33.6932L21.1026 9.90144ZM32.3278 18.2441L18.0763 1.58374L20.7095 8.82091L32.3278 18.2441ZM24.0817 20.7047H10.9183L17.5 30.9479L24.0817 20.7047ZM10.182 20.1131L13.8935 9.91234L1.31635 20.1131H10.182ZM2.65058 18.2693L14.2866 8.83181L16.9238 1.58361L2.65058 18.2693ZM17.5001 0.000114201L17.5 0L17.5 3.0711e-05L0 20.4578L5.06031 26.3734L0 32.289L17.5 52.7468L35 32.289L29.9397 26.3734L35 20.4578L17.5001 0.000114201ZM10.418 21.0203L9.21979 22.421L16.4304 30.3775L10.418 21.0203ZM19.0373 29.6497L24.5821 21.0203L25.687 22.3121L19.0373 29.6497ZM1.3688 21.1479L5.44955 25.9184L7.01179 24.0921L1.3688 21.1479ZM7.40643 23.6308L9.90947 20.7047H1.79807L7.40643 23.6308ZM33.2521 20.7047H25.0905L27.6091 23.6489L33.2521 20.7047ZM28.0037 24.1102L29.5505 25.9184L33.5907 21.1953L28.0037 24.1102ZM17.5 12.7413L23.806 20.1131H11.194L17.5 12.7413ZM18.0534 31.9443L28.6471 26.9744L24.3958 31.9443H18.0534ZM10.6042 31.9443H16.7546L6.48156 27.1248L10.6042 31.9443ZM7.34623 24.6112L15.5161 30.2495L8.83213 22.8742L7.34623 24.6112ZM14.3466 30.1612L5.96304 26.2282L6.95963 25.0631L14.3466 30.1612ZM26.0747 22.7652L19.2922 30.2494L27.5825 24.5279L26.0747 22.7652ZM27.9691 24.9798L28.982 26.1639L20.4614 30.1612L27.9691 24.9798ZM25.1743 31.9443L28.6 27.9395L26.6867 31.9443H25.1743ZM11.1102 32.5359L17.5 40.0056L23.8898 32.5359H11.1102ZM9.82575 31.9443H8.31341L6.40032 27.9399L9.82575 31.9443ZM10.3318 32.5359L17.2441 40.6165V50.6376L8.59603 32.5359H10.3318ZM17.8357 40.5233L24.6682 32.5359H26.4041L17.8357 50.471V40.5233ZM16.7331 50.9403L7.94042 32.5359H0.989622L16.7331 50.9403ZM18.2672 50.9399L27.0597 32.5359H34.0104L18.2672 50.9399ZM27.3424 31.9443H33.9267L29.7019 27.0055L27.3424 31.9443ZM1.07335 31.9443H7.65781L5.29822 27.0054L1.07335 31.9443Z" fill="#1E1E1E"/>
</svg>
