<?xml version="1.0" standalone="no"?>
<!DOCTYPE svg PUBLIC "-//W3C//DTD SVG 20010904//EN"
 "http://www.w3.org/TR/2001/REC-SVG-20010904/DTD/svg10.dtd">
<svg version="1.0" xmlns="http://www.w3.org/2000/svg"
 width="270.000000pt" height="270.000000pt" viewBox="0 0 270.000000 270.000000"
 preserveAspectRatio="xMidYMid meet">
<metadata>
Created by potrace 1.11, written by Peter Selinger 2001-2013
</metadata>
<g transform="translate(0.000000,270.000000) scale(0.100000,-0.100000)"
fill="#000000" stroke="none">
<path d="M1097 2290 c-142 -169 -267 -319 -278 -332 -24 -27 -26 -30 -149
-178 -53 -63 -102 -123 -109 -132 -14 -19 -4 -37 59 -108 12 -14 36 -42 53
-64 18 -21 37 -43 42 -50 44 -49 65 -80 58 -85 -5 -3 -40 -44 -78 -91 -38 -47
-72 -87 -75 -90 -3 -3 -20 -24 -39 -48 -29 -37 -31 -45 -20 -60 23 -28 253
-307 259 -312 3 -3 25 -30 50 -60 25 -30 50 -60 56 -67 6 -6 49 -57 95 -114
46 -56 94 -113 106 -126 12 -13 68 -80 124 -148 96 -116 104 -123 118 -107 9
9 47 55 86 102 38 47 72 87 75 90 3 3 61 73 130 155 69 83 127 152 130 155 3
3 37 43 75 90 38 47 72 87 75 90 6 6 53 61 101 121 20 24 55 66 78 94 23 27
41 52 41 56 0 3 -8 15 -17 26 -10 12 -34 40 -53 63 -19 24 -39 48 -45 54 -5 6
-34 39 -63 73 l-52 61 27 33 c16 19 37 45 48 58 11 13 38 45 61 71 72 82 96
119 88 131 -6 10 -223 272 -298 359 -11 14 -100 120 -196 235 -96 116 -177
212 -180 215 -3 3 -25 30 -50 60 -25 30 -52 63 -60 72 -15 16 -36 -7 -273
-292z"/>
</g>
</svg>
