<svg width="193" height="103" viewBox="0 0 193 103" fill="none" xmlns="http://www.w3.org/2000/svg">
<rect width="193" height="103" fill="#F8F9FA"/>
<path d="M38.7397 73.0454C38.8436 71.65 39.0841 70.2649 39.7145 68.9604C41.5519 65.1583 46.2981 63.3272 49.9933 65.2579C52.9656 66.8109 54.3671 70.8895 52.6254 73.9265C51.2931 76.2495 48.153 77.4276 45.7202 75.8903C44.8609 75.3473 44.2403 74.4927 43.9768 73.5314C43.7132 72.5702 43.8441 71.4582 44.5465 70.5744C44.9801 70.029 45.6025 69.6594 46.3128 69.5361C47.023 69.4127 47.8966 69.6136 48.4208 70.3035C48.7664 70.7584 48.7911 71.1761 48.6943 71.6692C48.6459 71.9157 48.5429 72.2144 48.2385 72.4366C47.9341 72.6588 47.4064 72.8096 47.156 72.5495C46.9414 72.3266 47.2868 71.9441 47.2976 71.6364C47.3051 71.4767 47.3125 71.3039 47.2472 71.1613C47.0733 70.9412 46.8887 70.9036 46.5749 70.9581C46.2541 71.0138 45.8678 71.2373 45.6861 71.466V71.4773C45.294 71.9762 45.2263 72.5514 45.3898 73.1476C45.5481 73.7249 45.9436 74.2841 46.4495 74.6262L46.5065 74.6713C48.1629 75.718 50.0895 74.8063 51.0409 73.1475C52.3428 70.8775 51.3339 68.1013 49.0472 66.9065C46.1244 65.3794 42.1184 67.1851 41.2236 70.1868C40.3385 73.1559 40.667 76.1269 41.1705 77.389L39.114 77.403C38.6181 75.0819 38.7401 74.5162 38.7401 73.0453L38.7397 73.0454Z" fill="#531767"/>
<path d="M123.619 53.0467C127.044 50.4367 128.678 46.1929 129.342 42.0878C129.626 40.2839 129.725 38.4265 129.369 36.625C132.103 36.6824 134.376 38.4174 136.432 40.0163C140.038 42.998 143.261 46.5105 145.584 50.5699C146.288 51.7555 144.549 51.4596 143.877 51.7072C137.92 52.8289 131.852 53.9638 125.765 53.4192C125.043 53.3376 124.325 53.2184 123.619 53.0466L123.619 53.0467Z" fill="#F8F9FA"/>
<path d="M88.0406 43.487C90.1373 40.833 93.182 39.1064 96.2471 37.7614C98.6659 36.7321 101.233 35.996 103.867 35.8159C104.565 35.7215 105.263 35.6271 105.961 35.5327C104.82 38.1055 104.151 41.1152 105.195 43.8315C106.315 46.7572 108.518 49.0877 110.04 51.7975C110.932 52.8009 109.008 52.329 108.399 52.4763C103.466 52.4716 98.4384 51.6174 94.0051 49.4032C91.4749 48.1063 89.125 46.1654 88.0406 43.487Z" fill="#F8F9FA"/>
<path d="M128.244 33.144C130.066 35.5037 131.05 38.3931 131.043 41.3635C131.043 44.94 129.609 48.37 127.056 50.8989C124.502 53.4279 121.04 54.8486 117.429 54.8486C113.818 54.8486 110.355 53.4279 107.802 50.8989C105.248 48.37 103.814 44.94 103.814 41.3635C103.798 38.3967 104.771 35.5076 106.582 33.144H128.244Z" fill="#531767"/>
<path d="M131.695 92.3818C133 92.3818 133.384 91.3361 134.056 87.4092C134.531 84.5726 135.434 81.9443 136.092 79.1449C136.678 76.6264 137.186 75.2412 137.966 74.0343C139.237 72.0703 139.188 70.0174 137.827 68.1819C136.6 66.5262 136.504 66.0467 136.558 61.8649C136.585 59.8057 136.668 57.778 136.742 57.359C136.913 56.3956 137.636 55.8821 139.437 55.447C141.081 55.0497 142.64 55.0067 147.572 55.2227C151.089 55.3768 151.538 55.3616 151.982 55.0732C153.073 54.3653 152.555 53.3758 149.605 50.537C146.564 47.6092 144.977 45.7969 142.082 41.945C136.879 35.0228 136.087 34.1056 130.936 32.5007C127.141 31.3183 125.762 30.7704 118.911 30.5692C114.132 30.4288 111.396 31.0676 110.119 31.2117C105.23 31.763 97.2773 34.0681 92.2981 36.2196C89.6655 37.3572 89.5761 37.4047 86.4605 39.3208C84.138 40.7491 82.8291 41.3289 79.5906 42.2073C72.828 44.0415 68.5892 43.6969 61.7567 44.1999C59.9621 44.332 52.2005 44.8748 47.3152 45.0598C41.3662 45.285 40.3687 44.6686 39.867 45.1654C39.4732 45.5554 39.7578 46.7362 39.7502 47.9121C39.7456 48.6298 39.7859 49.3836 39.8444 50.1397C41.4324 49.8663 41.402 49.8771 44.9891 49.5797C45.3149 49.5527 48.2298 49.2592 53.6152 48.7786C55.9156 48.5733 67.2476 48.2324 74.066 48.025C77.3608 47.9248 80.726 47.1183 83.9521 47.788C85.0692 48.0198 83.4894 47.5737 87.0537 49.2244C94.0928 51.9222 97.8806 53.792 107.311 55.5277C113.276 56.3956 113.748 56.4828 114.362 56.9276C114.7 57.1726 114.684 57.2381 114.037 58.2401C113.346 59.3099 111.27 61.2757 108.28 63.6908C98.2738 72.0551 85.9779 78.5576 76.7043 82.6217C72.3968 84.448 69.4254 85.4354 66.9911 85.8494C54.9935 88.4709 40.9653 84.0266 40.6067 74.9132C40.5972 74.6721 40.5099 73.761 40.6338 72.5941C40.7201 71.7808 40.8075 71.1883 41.0783 70.4638C41.8497 68.3998 43.4845 66.5457 46.6362 66.2869C48.9132 66.2911 50.5859 67.4688 51.2789 69.3915C52.1632 71.8453 51.0233 74.5891 48.5606 75.068C47.2734 75.3183 46.3852 74.9671 45.7942 74.2102C45.1463 73.3803 45.0731 71.9012 45.5313 71.2084C45.9725 70.5416 46.9359 70.1955 47.6295 70.4549C48.3298 70.7167 48.5975 70.525 47.7563 69.8436C47.6825 69.7958 47.6054 69.7555 47.5254 69.7223C46.2329 69.1863 44.2054 70.5139 44.053 72.4362C43.915 74.6433 45.5465 76.3298 47.7844 76.4567C49.0571 76.5289 50.6134 76.0792 51.6663 74.9585C54.2687 72.1883 53.4441 68.2605 51.0928 66.1722C50.1986 65.3779 49.5898 65.009 48.3664 64.7365C44.6116 63.9003 41.0603 65.6031 39.5409 69.4023C38.85 71.1302 38.8106 72.5129 38.7943 73.8607C38.6578 85.1686 51.5382 90.6035 64.3723 89.704C69.8018 89.2408 73.3337 88.3966 79.976 85.6883C87.0669 83.367 107.781 72.5709 120.288 62.585C123.941 59.6441 126.203 58.2049 126.696 58.5069C126.815 58.58 126.888 60.8093 126.888 64.4209C126.889 69.9424 126.908 70.2484 127.29 70.8688C127.925 71.9016 128.246 74.272 128.449 79.4335C128.766 87.481 128.968 91.1292 129.117 91.4869C129.388 92.1364 130.48 92.3824 131.693 92.3824L131.695 92.3818ZM88.7348 43.9459C88.6537 43.5292 89.6273 42.2901 90.9118 41.4346C92.9271 40.0926 95.2511 39.2243 97.5204 38.3702C111.465 33.8548 125.644 34.5178 131.255 37.4175C133.309 38.4066 133.994 38.9107 135.678 40.4093C136.478 41.1216 137.537 42.2775 138.032 42.9781C139.027 44.3879 139.973 45.5391 141.718 47.4636C143.521 49.4525 144.528 50.6842 144.528 50.8998C144.528 51.2016 142.998 51.5044 141.136 51.5873C125.405 53.5634 96.4661 54.3133 88.7355 43.9459L88.7348 43.9459ZM45.2783 30.6305C48.488 30.5345 53.5104 30.2435 57.5876 29.6906C61.3724 29.1774 65.1567 28.5258 68.8306 27.489C72.3164 26.5053 75.6393 25.0218 79.0076 23.6962C80.5049 23.1069 81.9773 22.4572 83.466 21.8469C85.0786 21.1858 86.6703 20.4698 88.3122 19.8839C91.3212 18.8101 94.3187 17.5902 97.4693 17.0444C105.608 15.6339 113.997 15.3588 122.235 15.9887C126.801 16.3377 131.287 17.4694 135.707 18.6532C139.17 19.5805 142.496 20.9519 145.884 22.1171C146.867 22.4552 147.83 23.4306 148.826 23.1387C149.872 22.8315 150.906 21.6509 150.826 20.5734C150.742 19.4437 149.307 18.8427 148.354 18.2172C145.093 16.0772 141.279 14.8601 137.564 13.647C133.839 12.4307 130.019 11.3186 126.114 10.9588C115.583 9.98862 104.773 10.3003 94.4197 12.4424C88.9358 13.5771 83.9627 16.4281 78.7181 18.379C72.6242 20.6458 66.7462 23.6483 60.3997 25.0816C53.994 26.5281 44.166 26.9304 40.7786 26.9231C39.5103 26.9203 39.4665 26.9366 39.1581 27.5274C38.7992 28.2148 38.5522 30.2722 38.8106 30.4222C39.0703 30.5727 42.9964 30.6997 45.2804 30.6313L45.2783 30.6305Z" fill="#531767" stroke="#531767"/>
</svg>
