<svg width="36" height="40" viewBox="0 0 36 40" fill="none" xmlns="http://www.w3.org/2000/svg">
<g clip-path="url(#clip0_1259_294)">
<path opacity="0.9" d="M15.5222 26.4374C15.5222 26.2103 15.6127 25.9921 15.7736 25.8315C18.0196 23.5908 21.2643 22.02 24.9977 22.02C28.7293 22.02 31.9741 23.5891 34.2217 25.8315C34.3826 25.9921 34.4731 26.2099 34.4731 26.4369C34.4731 26.664 34.3826 26.8822 34.2217 27.0428C31.9753 29.284 28.731 30.8543 24.9977 30.8543C21.2635 30.8543 18.0188 29.2828 15.7736 27.0428C15.6126 26.8822 15.5222 26.6644 15.5222 26.4374Z" fill="#ED5454"/>
<path opacity="0.9" d="M17.1832 28.2606C17.06 28.0472 17.0264 27.7933 17.0902 27.5553C17.9804 24.2346 20.1711 21.0029 23.6724 18.9825C27.1722 16.963 31.0669 16.6813 34.3921 17.5717C34.6301 17.6355 34.8331 17.7911 34.9564 18.0045C35.0796 18.2178 35.1132 18.4718 35.0494 18.7098C34.159 22.0312 31.9685 25.2622 28.4672 27.2826C24.965 29.3034 21.0691 29.5829 17.7475 28.6933C17.5094 28.6296 17.3065 28.4739 17.1832 28.2606Z" fill="#F48658"/>
<path opacity="0.9" d="M17.6 28.5497C17.3693 28.4166 17.2005 28.197 17.1315 27.9399C16.1692 24.3508 16.4722 20.1425 18.6571 16.3603C20.8411 12.5797 24.3343 10.2124 27.9282 9.25002C28.1856 9.18115 28.4597 9.21716 28.6904 9.35027C28.9211 9.48339 29.0899 9.70297 29.1589 9.96017C30.1214 13.5501 29.8182 17.7575 27.6333 21.5398C25.4479 25.3228 21.9523 27.6887 18.3622 28.65C18.1048 28.719 17.8307 28.6829 17.6 28.5497Z" fill="#F7BD58"/>
<path opacity="0.9" d="M20.0759 26.4374C20.0759 26.2103 19.9854 25.9921 19.8245 25.8315C17.5785 23.5908 14.3338 22.02 10.6004 22.02C6.86879 22.02 3.62406 23.5891 1.37638 25.8315C1.21545 25.9921 1.125 26.2099 1.125 26.4369C1.125 26.664 1.21545 26.8822 1.37638 27.0428C3.62285 29.284 6.86713 30.8543 10.6004 30.8543C14.3346 30.8543 17.5793 29.2828 19.8245 27.0428C19.9855 26.8822 20.0759 26.6644 20.0759 26.4374Z" fill="#BC6FAE"/>
<path opacity="0.9" d="M18.8179 28.2606C18.9412 28.0472 18.9748 27.7933 18.911 27.5553C18.0207 24.2346 15.8301 21.0029 12.3288 18.9825C8.82903 16.963 4.93426 16.6813 1.60916 17.5717C1.37108 17.6355 1.16807 17.7911 1.04484 18.0045C0.921612 18.2178 0.887983 18.4718 0.951774 18.7098C1.84222 22.0312 4.03264 25.2622 7.53398 27.2826C11.0361 29.3034 14.9321 29.5829 18.2536 28.6933C18.4917 28.6296 18.6947 28.4739 18.8179 28.2606Z" fill="#7C79C2"/>
<path opacity="0.9" d="M18.4449 28.5888C18.6756 28.4557 18.8445 28.2361 18.9134 27.979C19.8757 24.3899 19.5727 20.1816 17.3878 16.3993C15.2038 12.6188 11.7106 10.2515 8.11667 9.28908C7.85939 9.22021 7.58517 9.25622 7.35449 9.38934C7.12379 9.52245 6.95497 9.74204 6.88602 9.99923C5.92351 13.5892 6.22671 17.7966 8.41164 21.5788C10.597 25.3619 14.0926 27.7277 17.6827 28.6891C17.9401 28.7581 18.2142 28.7219 18.4449 28.5888Z" fill="#6EBFD1"/>
<path opacity="0.9" d="M18.0264 28.6903C17.7601 28.6903 17.504 28.5845 17.3156 28.3962C14.6867 25.7689 12.8438 21.973 12.8438 17.6057C12.8438 13.2403 14.6847 9.44447 17.3156 6.81507C17.504 6.62681 17.7595 6.521 18.0258 6.521C18.2922 6.521 18.5483 6.62681 18.7367 6.81507C21.3662 9.44306 23.2085 13.2383 23.2085 17.6057C23.2085 21.974 21.3648 25.7697 18.7367 28.3962C18.5483 28.5846 18.2928 28.6903 18.0264 28.6903Z" fill="#8ECE7D"/>
<path d="M25.861 28.4301C26.0235 27.9134 25.736 27.3628 25.2191 27.2005C22.9113 26.4757 21.9314 22.3454 21.7016 20.8222C21.668 20.6065 21.5566 20.3973 21.5566 20.3973C21.1328 19.5914 19.5286 19.2154 19.3481 19.1936C19.0239 19.1546 18.9826 18.9068 18.969 18.8225C19.5355 18.4287 19.918 17.4779 19.918 16.6193C19.9179 15.3512 19.784 14.3232 18.0554 14.3232C18.0322 14.3232 17.9435 14.3232 17.9202 14.3232C16.1915 14.3232 16.0577 15.3512 16.0577 16.6193C16.0577 17.4779 16.4402 18.4287 17.0066 18.8225C16.993 18.9068 16.9391 19.1588 16.6275 19.1936C16.4332 19.2154 14.5917 19.6497 14.3441 20.5875C14.3441 20.5875 14.3137 20.7216 14.2952 20.826C14.2928 20.8401 14.102 22.2565 13.531 23.7952C13.0441 25.1075 12.1716 26.7637 10.7808 27.2005C10.2638 27.3628 9.97645 27.9134 10.1389 28.4302C10.2695 28.8454 10.651 29.1121 11.064 29.1166C10.2369 29.592 10.1159 30.2548 10.1159 30.5983C10.1159 30.7348 10.1865 31.1786 10.5092 31.5875C10.7989 31.9552 11.3765 32.3933 12.482 32.3933C12.6479 32.3933 12.8232 32.3834 13.0034 32.3641C13.7388 32.285 14.4803 32.1663 15.1973 32.0516C15.4575 32.0099 15.7175 31.9683 15.9779 31.9285C16.3247 31.8753 16.9499 31.8401 17.8359 31.8238H18.1397C19.0256 31.8401 19.6508 31.8753 19.9977 31.9285C20.2581 31.9683 20.518 32.0099 20.7783 32.0516C21.4952 32.1663 22.2367 32.285 22.9721 32.3641C23.1523 32.3834 23.3277 32.3933 23.4936 32.3933C24.5991 32.3933 25.1767 31.9551 25.4664 31.5875C25.7891 31.1786 25.8596 30.7348 25.8596 30.5983C25.8596 30.2547 25.7386 29.5919 24.9114 29.1165C24.916 29.1166 24.9205 29.117 24.9251 29.117C25.3423 29.117 25.7293 28.8489 25.861 28.4301ZM14.3963 28.3059C13.8985 28.4607 13.7842 28.477 13.3585 28.5374C13.2199 28.5569 13.0496 28.5812 12.824 28.6159C12.6031 28.6394 12.4005 28.671 12.2138 28.7088C13.4935 28.0022 14.5257 26.655 15.2907 24.6884C15.3333 25.0715 15.3598 25.4935 15.3598 25.9576C15.3598 27.4714 14.5925 28.2448 14.3963 28.3059ZM23.1515 28.6159C22.9259 28.5812 22.7559 28.5544 22.617 28.5374C21.2761 28.3724 20.6158 27.4715 20.6158 25.9576C20.6158 25.4737 20.6444 25.0351 20.6903 24.6391C21.46 26.6396 22.5033 28.0064 23.8002 28.7168C23.6029 28.6753 23.3877 28.6411 23.1515 28.6159Z" fill="#F0EBF4"/>
</g>
<defs>
<clipPath id="clip0_1259_294">
<rect width="34.2857" height="39.2857" fill="white" transform="translate(0.857178)"/>
</clipPath>
</defs>
</svg>
